<svg fill="none" height="17" viewBox="0 0 18 17" width="18" xmlns="http://www.w3.org/2000/svg" xmlns:xlink="http://www.w3.org/1999/xlink"><linearGradient id="a" gradientUnits="userSpaceOnUse" x1="-.71874" x2="20.144" y1=".32788" y2="6.81554"><stop offset="0" stop-color="#2a93d6"/><stop offset="1" stop-color="#3dd9d6"/></linearGradient><path d="m.127441 2.20014c0-.54269.190587-.99041.571745-1.343141.381154-.352751.876684-.529118 1.486534-.529118.59898 0 1.08359.173648 1.45387.520977.38115.358172.57174.824872.57174 1.400132 0 .52097-.18513.95511-.55541 1.30244-.38116.35817-.88212.53726-1.50287.53726h-.01634c-.59897 0-1.08358-.17909-1.45386-.53726-.370278-.35817-.555409-.80861-.555409-1.35129zm.212363 14.24546v-10.87538h3.626496v10.87538zm5.635766 0h3.62649v-6.0726c0-.37991.04357-.67296.13069-.87917.15246-.36903.38385-.68108.69425-.93613.3104-.25507.6997-.3826 1.168-.3826 1.2197 0 1.8296.81945 1.8296 2.4584v5.8121h3.6265v-6.2354c0-1.60638-.3812-2.8247-1.1435-3.65501s-1.7697-1.24546-3.0221-1.24546c-1.4049 0-2.4993.60238-3.28344 1.80714v.03256h-.01633l.01633-.03256v-1.54665h-3.62649c.02177.34731.03267 1.42725.03267 3.23983 0 1.81255-.0109 4.35775-.03267 7.63555z" fill="url(#a)"/></svg>