<svg viewBox="0 0 4680 3120" xmlns="http://www.w3.org/2000/svg"><g><path d="m0 0h4680v3120h-4680z" fill="#fff" opacity="0"/><path d="m3826.6 953.62c-316.45-448.83-734.4-123.33-1015.39-244.94-49.65-21.47-99.47-56-149.34-109-28.07-29.81-333.75-275.48-911.42-235.18-884.17 61.64-823.02 610.5-691.45 896.5 83.08 180.55-22 345.46-145.73 551.64-314.45 524.2-4.9 878.4-2 885.23 203 0 2760.28-6.1 2760.28-6.44 1.14-2.74 622.37-338.33 98.86-898.84-214.36-229.49 317.96-467.69 56.19-838.97z" fill="#d6f3fe"/><path d="m1100.54 1637.8-16.82-1.74a24.52 24.52 0 0 1 -16.85-39.42l10.41-13.42a178.4 178.4 0 0 0 -21.49-27.27l-15.45 6.91a24.51 24.51 0 0 1 -34.3-25.71l2.29-16.77a178 178 0 0 0 -32.2-13l-10 13.76a24.52 24.52 0 0 1 -42.56-5.12l-6.39-15.66q-8.64.42-17.31 1.65t-17.08 3.28l-1.74 16.82a24.52 24.52 0 0 1 -39.38 16.89l-13.42-10.41a179 179 0 0 0 -27.25 21.48l6.92 15.45a24.53 24.53 0 0 1 -25.71 34.31l-16.78-2.3a178.77 178.77 0 0 0 -13 32.2l13.76 10a24.52 24.52 0 0 1 -5.11 42.56l-15.66 6.39q.41 8.64 1.64 17.31t3.28 17.08l16.82 1.74a24.52 24.52 0 0 1 16.84 39.38l-10.41 13.42a179 179 0 0 0 21.49 27.27l15.46-6.92a24.52 24.52 0 0 1 34.3 25.71l-2.3 16.78a178.77 178.77 0 0 0 32.2 13l10-13.76a24.52 24.52 0 0 1 42.56 5.12l6.39 15.65q8.64-.4 17.32-1.64t17.07-3.28l1.74-16.82a24.52 24.52 0 0 1 39.42-16.85l13.42 10.41a179 179 0 0 0 27.27-21.49l-6.91-15.45a24.52 24.52 0 0 1 25.71-34.31l16.77 2.3a178 178 0 0 0 13-32.2l-13.76-10a24.52 24.52 0 0 1 5.12-42.56l15.66-6.39q-.42-8.64-1.65-17.31t-3.33-17.07zm-201.12-47.06a95.52 95.52 0 0 1 12.79-2.75 93 93 0 0 1 56.36 9.61 10.23 10.23 0 0 1 2.72 16.14l-41.52 43.37a24 24 0 0 0 -7.48-.19l-28.84-51.42a10.18 10.18 0 0 1 5.97-14.76zm-66.87 80.2a93.47 93.47 0 0 1 28-57.65 10.2 10.2 0 0 1 16 2.38l29.06 51.82a23.66 23.66 0 0 0 -2.85 6.2l-58.57 8.38a10.2 10.2 0 0 1 -11.64-11.13zm60.1 96.9a93.54 93.54 0 0 1 -53.72-52.28 10.21 10.21 0 0 1 8-13.93l58.57-8.38c.39.61.82 1.22 1.28 1.81a24.76 24.76 0 0 0 2.11 2.33zm97.88-20.49a93 93 0 0 1 -51.85 25.49 94.34 94.34 0 0 1 -14.45.94 10.19 10.19 0 0 1 -9.78-12.5l13.21-57.28a23.48 23.48 0 0 0 9.72-3.12l51.18 30.46a10.18 10.18 0 0 1 1.97 16.01zm23.75-38.14a10.2 10.2 0 0 1 -14.92 5.58l-50.6-30.12a23.65 23.65 0 0 0 -2.71-16l40.59-42.41a10.21 10.21 0 0 1 15.78 1.27 93.54 93.54 0 0 1 11.86 81.67z" fill="#227cb6"/><path d="m943.54 1562.57a119.23 119.23 0 1 0 99.75 135.94 119.35 119.35 0 0 0 -99.75-135.94zm76.46 132.37a95.69 95.69 0 1 1 -80-109.11 95.81 95.81 0 0 1 80 109.11z" fill="#184562" opacity=".16"/><path d="m1099.37 1620.27-16.82-1.74a24.52 24.52 0 0 1 -16.86-39.42l10.42-13.42a178.53 178.53 0 0 0 -21.49-27.27l-15.46 6.91a24.52 24.52 0 0 1 -34.3-25.71l2.3-16.77a178 178 0 0 0 -32.2-13l-10 13.76a24.53 24.53 0 0 1 -42.57-5.12l-6.39-15.63q-8.62.42-17.31 1.65t-17.07 3.28l-1.74 16.82a24.52 24.52 0 0 1 -39.42 16.85l-13.42-10.41a178.47 178.47 0 0 0 -27.27 21.48l6.91 15.46a24.52 24.52 0 0 1 -25.71 34.3l-16.73-2.29a178 178 0 0 0 -13 32.2l13.76 10a24.52 24.52 0 0 1 -5.12 42.56l-15.66 6.39q.42 8.64 1.65 17.31t3.28 17.08l16.82 1.74a24.52 24.52 0 0 1 16.85 39.41l-10.41 13.43a178.39 178.39 0 0 0 21.48 27.26l15.46-6.91a24.52 24.52 0 0 1 34.3 25.71l-2.29 16.78a178.77 178.77 0 0 0 32.2 13l10-13.76a24.52 24.52 0 0 1 42.56 5.11l6.39 15.66q8.64-.4 17.31-1.64t17.08-3.28l1.74-16.82a24.52 24.52 0 0 1 39.36-16.93l13.43 10.42a178.46 178.46 0 0 0 27.26-21.49l-6.91-15.46a24.52 24.52 0 0 1 25.71-34.3l16.78 2.3a178.77 178.77 0 0 0 13-32.2l-13.76-10a24.53 24.53 0 0 1 5.11-42.57l15.66-6.39q-.4-8.62-1.64-17.31t-3.27-17.03zm-201.13-47.06a93.54 93.54 0 0 1 69.15 6.86 10.22 10.22 0 0 1 2.73 16.14l-41.52 43.37a23.76 23.76 0 0 0 -7.48-.19l-28.84-51.39a10.18 10.18 0 0 1 5.96-14.79zm-66.87 80.2a93.46 93.46 0 0 1 28-57.65 10.19 10.19 0 0 1 16 2.38l29.03 51.86a23.87 23.87 0 0 0 -2.86 6.2l-58.54 8.34a10.21 10.21 0 0 1 -11.63-11.13zm60.11 96.9a93.52 93.52 0 0 1 -53.73-52.31 10.21 10.21 0 0 1 8-13.92l58.57-8.38c.4.61.83 1.22 1.29 1.81a24.67 24.67 0 0 0 2.1 2.33zm18.7-89.59a14.26 14.26 0 1 1 11.93 16.28 14.27 14.27 0 0 1 -11.93-16.28zm79.18 69.1a93.64 93.64 0 0 1 -66.31 26.43 10.2 10.2 0 0 1 -9.78-12.5l13.21-57.27a23.52 23.52 0 0 0 9.73-3.12l51.17 30.46a10.18 10.18 0 0 1 1.98 16zm23.74-38.14a10.19 10.19 0 0 1 -14.91 5.58l-50.6-30.12a23.71 23.71 0 0 0 -2.72-16l40.6-42.41a10.2 10.2 0 0 1 15.77 1.27 93.54 93.54 0 0 1 11.86 81.67z" fill="#1997e7"/><path d="m942.36 1545a119.22 119.22 0 1 0 99.75 136 119.36 119.36 0 0 0 -99.75-136zm76.49 132.36a95.69 95.69 0 1 1 -80.06-109.1 95.8 95.8 0 0 1 80.06 109.14z" fill="#184562" opacity=".16"/><path d="m930.19 1846.52-7.32-18a21 21 0 0 0 -36.49-4.39l-11.38 15.81-2.37-.69a182.68 182.68 0 0 1 -32.86-13.25l-2.19-1.14 2.64-19.21a21 21 0 0 0 -29.41-22l-17.71 7.92-1.7-1.78a183.8 183.8 0 0 1 -21.91-27.8l-1.33-2.09 11.92-15.37a21 21 0 0 0 -14.44-33.79l-19.29-2-.58-2.41c-1.38-5.74-2.51-11.6-3.34-17.4s-1.39-11.74-1.67-17.64l-.12-2.48 18-7.32a21 21 0 0 0 4.36-36.49l-15.76-11.41.7-2.37a181.91 181.91 0 0 1 13.22-32.83l1.14-2.19 19.22 2.64a21 21 0 0 0 22-29.41l-7.92-17.71 1.78-1.7a182.81 182.81 0 0 1 27.8-21.91l2.08-1.33 15.38 11.92a21 21 0 0 0 33.79-14.44l2-19.29 2.4-.58c5.75-1.38 11.6-2.51 17.41-3.34s11.74-1.39 17.64-1.67l2.47-.12 7.33 18a21 21 0 0 0 36.48 4.38l11.41-15.76 2.37.7a182.3 182.3 0 0 1 32.84 13.22l2.18 1.14-2.63 19.22a21 21 0 0 0 29.4 22l17.71-7.92 1.71 1.78a182.62 182.62 0 0 1 21.9 27.8l1.34 2.08-11.93 15.38a21 21 0 0 0 14.45 33.78l19.28 2 .58 2.4c1.39 5.75 2.51 11.6 3.34 17.41s1.4 11.73 1.68 17.64l.12 2.47-18 7.32a21 21 0 0 0 -4.39 36.49l15.76 11.41-.69 2.37a183.08 183.08 0 0 1 -13.23 32.84l-1.14 2.18-19.21-2.63a21 21 0 0 0 -22 29.4l7.92 17.71-1.78 1.71a182.7 182.7 0 0 1 -27.81 21.9l-2.08 1.34-15.37-11.93a21 21 0 0 0 -33.79 14.45l-2 19.28-2.41.58c-5.74 1.39-11.6 2.51-17.4 3.34s-11.74 1.4-17.64 1.68zm-26.91-38a29.23 29.23 0 0 1 3.47.21 27.67 27.67 0 0 1 22.6 17.23l5.45 13.35c4.86-.3 9.74-.79 14.51-1.48s9.6-1.57 14.35-2.65l1.49-14.34a28 28 0 0 1 45-19.26l11.45 8.88a174.85 174.85 0 0 0 22.89-18l-5.9-13.19a28 28 0 0 1 29.41-39.27l14.31 2a175.21 175.21 0 0 0 10.89-27l-11.74-8.5a28 28 0 0 1 5.84-48.64l13.35-5.44c-.3-4.87-.79-9.74-1.48-14.52s-1.57-9.6-2.65-14.35l-14.34-1.48a28 28 0 0 1 -19.26-45l8.88-11.46a174.09 174.09 0 0 0 -18-22.88l-13.19 5.9a28 28 0 0 1 -39.2-29.38l2-14.32a176.63 176.63 0 0 0 -27-10.89l-8.5 11.75a28 28 0 0 1 -48.64-5.85l-5.44-13.35c-4.87.3-9.74.8-14.52 1.48s-9.59 1.58-14.35 2.66l-1.56 14.27a28 28 0 0 1 -45 19.26l-11.45-8.89a175.78 175.78 0 0 0 -22.88 18l5.9 13.19a28 28 0 0 1 -29.38 39.2l-14.32-2a176.63 176.63 0 0 0 -10.89 27l11.75 8.5a28 28 0 0 1 -5.85 48.64l-13.35 5.45c.3 4.87.8 9.74 1.48 14.52s1.58 9.59 2.66 14.34l14.34 1.49a28 28 0 0 1 19.26 45l-8.89 11.45a176.55 176.55 0 0 0 18 22.89l13.19-5.9a28 28 0 0 1 39.2 29.38l-2 14.31a175.62 175.62 0 0 0 27 10.89l8.5-11.74a27.63 27.63 0 0 1 22.61-11.5zm20.9-48.73h-1.18a13.7 13.7 0 0 1 -13.14-16.79l13.78-59.73 2.52-.23a20 20 0 0 0 8.28-2.66l1.79-1 52.94 31.51a13.65 13.65 0 0 1 6.62 10.21 13.45 13.45 0 0 1 -4 11.31 96.15 96.15 0 0 1 -53.8 26.44 98.59 98.59 0 0 1 -13.81.9zm5.17-70.14-12.67 54.93a6.7 6.7 0 0 0 6.42 8.21 91.56 91.56 0 0 0 13.91-.91 89.23 89.23 0 0 0 49.9-24.52 6.53 6.53 0 0 0 1.93-5.48 6.68 6.68 0 0 0 -3.25-5l-49.48-29.45a26.82 26.82 0 0 1 -6.76 2.18zm-35.35 65.35-3.74-1.41a97.17 97.17 0 0 1 -55.74-54.25 13.7 13.7 0 0 1 10.77-18.7l60.79-8.71 1.21 1.89c.37.56.73 1.06 1.1 1.54a20.7 20.7 0 0 0 1.8 2l1.41 1.37zm8.73-75.52-56.45 8.09a6.7 6.7 0 0 0 -5.27 9.14 90.13 90.13 0 0 0 48 48.83l14.91-64.63c-.36-.4-.7-.81-1-1.22zm100.68 22.72a13.7 13.7 0 0 1 -7-1.93l-52.69-31.37.43-2.39a20.11 20.11 0 0 0 -2.31-13.62l-1.29-2.27 42.4-44.3a13.72 13.72 0 0 1 21.19 1.7 97 97 0 0 1 12.3 84.74 13.58 13.58 0 0 1 -8.18 8.56 13.85 13.85 0 0 1 -4.86.88zm-52-36.89 48.62 28.94a6.69 6.69 0 0 0 9.8-3.66 90.06 90.06 0 0 0 -11.42-78.6 6.7 6.7 0 0 0 -10.36-.83l-38.89 40.62a27.19 27.19 0 0 1 2.2 13.53zm-27.08 15.33a17.79 17.79 0 0 1 -17.56-20.45 17.76 17.76 0 1 1 35.1 5.39 17.79 17.79 0 0 1 -17.59 15.06zm-14.1-19.92 3.46.53a10.75 10.75 0 1 0 21.26 3.26 10.75 10.75 0 0 0 -21.26-3.26zm-68.68 7.43a13.72 13.72 0 0 1 -13.61-15.09 97 97 0 0 1 29.05-59.82 13.69 13.69 0 0 1 21.44 3.19l30.1 53.67-1.15 1.77a20.09 20.09 0 0 0 -2.43 5.28l-.63 2.15-60.8 8.71a14.61 14.61 0 0 1 -2.02.14zm24.9-71.73a6.59 6.59 0 0 0 -4.59 1.85 90 90 0 0 0 -27 55.49 6.71 6.71 0 0 0 7.63 7.32l56.45-8.09a27.69 27.69 0 0 1 1.43-3.08l-28.08-50.06a6.69 6.69 0 0 0 -4.9-3.36 6.55 6.55 0 0 0 -.99-.07zm63.42 46.95-1.87-.37a20.09 20.09 0 0 0 -6.38-.16l-2.35.31-30-53.49a13.66 13.66 0 0 1 -.73-11.94 13.47 13.47 0 0 1 8.77-7.89 97.59 97.59 0 0 1 13.27-2.85 96.09 96.09 0 0 1 58.42 10.02 13.71 13.71 0 0 1 3.63 21.66zm-5.56-7.69a28.53 28.53 0 0 1 3.06.17l40.27-42.06a6.64 6.64 0 0 0 1.76-5.69 6.75 6.75 0 0 0 -3.58-4.93 89.17 89.17 0 0 0 -54.23-9.24 90.13 90.13 0 0 0 -12.33 2.64 6.54 6.54 0 0 0 -4.23 3.82 6.73 6.73 0 0 0 .35 5.87l27.74 49.45c.34-.02.74-.03 1.14-.03z"/><path d="m922.71 1781.81a122.73 122.73 0 1 1 121.1-104.11 122.93 122.93 0 0 1 -121.1 104.11zm-.27-238.47a115.72 115.72 0 1 0 17.63 1.35 115.91 115.91 0 0 0 -17.63-1.35z"/><path d="m3645.41 2041.7 6.86 87.61-28.27-62.71c-71.54 88.34-121.87 207.79-17.07 319.29 0 0 137.13-21.44 177.83-126.07a269.71 269.71 0 0 0 13.38-47.66l-61.78 11.75c.91-.65 37.64-26.77 66.47-46.06 10.63-118.64-31.77-245.88-31.77-245.88s-65.48 43.46-125.65 109.73z" fill="#9de3fd"/><path d="m3605.68 2389.64-1.27-1.35c-48.37-51.46-68-109.09-58.5-171.26 7.49-48.74 32.85-100.1 75.4-152.64l3.58-4.41 22.31 49.58-5.31-68 .21-1.44.71-.81c59.78-65.83 125.69-109.86 126.35-110.3l3.81-2.52 1.44 4.33c.43 1.28 42.5 129.3 31.94 247.3l-.15 1.67-1.39.93c-18.3 12.24-39.77 27.23-53.22 36.7l51-9.69-.95 5a273.77 273.77 0 0 1 -13.56 48.28c-9.48 24.38-24.92 46.31-45.87 65.17-16.7 15-36.91 28.15-60.08 39-39.37 18.44-73.18 23.87-74.6 24.09zm17.5-316.39c-39.6 50-63.27 98.71-70.35 144.84-9.12 59.39 9.52 114.57 55.4 164a309.87 309.87 0 0 0 71.07-23.28c35.28-16.55 81.65-47.38 102.23-100.29a262.22 262.22 0 0 0 12.2-42l-72.3 13.75 12.93-9.26c.33-.24 36.27-25.8 65.16-45.18 8.84-103.73-23.14-215-30.34-238.35-14.78 10.3-69.54 49.92-120.17 105.41l8.3 106.16z"/><path d="m3711.78 2086.53c-15.47 40-30.21 80.3-44.71 120.67-58.37 162.54-113 326.43-168 490.14-1.16 3.46 4.21 5.28 5.37 1.82q21.28-63.36 42.6-126.72c54.58-162 108.41-324.61 170.08-484.09 1.34-3.35-4.03-5.21-5.34-1.82z" fill="#090d10"/><path d="m3761.07 2141.79-86.39 47.39c-3.2 1.75-.7 6.84 2.5 5.08l86.4-47.39c3.19-1.75.7-6.87-2.51-5.08zm-149.38 7.48c-1.85-3.12-6.94-.63-5.08 2.51l50.27 84.76c1.85 3.12 6.94.63 5.08-2.51zm112.53 120.26-91.77 35.91c-3.4 1.33-.87 6.4 2.51 5.08l91.76-35.9c3.4-1.34.87-6.41-2.5-5.09z" fill="#090d10"/><path d="m3468.64 2288.71 16.86-80.32c-47.78-68.6-103.25-116.72-103.25-116.72s-54.53 112.76-58.93 223.93c24.38 21.32 55.27 49.92 56 50.63l-55.8-18.29a251.94 251.94 0 0 0 6.67 45.75c25.13 101.8 149.57 138.12 149.57 138.12 110.46-90.71 78.18-207.38 22.52-297.79z" fill="#61b0e3"/><path d="m3480.59 2535.66-1.78-.51c-1.29-.38-32-9.47-66.26-31.3-31.79-20.23-72.47-55.63-85.73-109.34a255.87 255.87 0 0 1 -6.77-46.39l-.29-5.12 45.35 14.86c-11.34-10.39-28.93-26.38-44.09-39.65l-1.26-1.1.06-1.67c4.38-110.61 58.74-224.18 59.28-225.31l2-4.12 3.46 3c.56.48 56.34 49.19 103.82 117.36l.54.78.12 1.45-.11.5-12.73 60.66 26.12-42.44 3 4.84c33.12 53.81 50.47 104.45 51.55 150.54 1.39 58.81-23.79 109.88-74.83 151.79zm-153.21-182.8a244.83 244.83 0 0 0 6.24 40c12.69 51.4 51.88 85.48 82.53 105a289.67 289.67 0 0 0 62.87 30c48.32-40.25 72.14-89 70.82-145-1-43.44-17-91.25-47.55-142.16l-41.21 67 20.68-98.53c-40-57.06-85.55-100.11-98.32-111.73-9.72 21.38-52.29 120-56.55 216.64 24.5 21.48 54.57 49.34 54.85 49.6l11.63 10.84z"/><path d="m3495.76 2571.54c-21.34-110.85-50.05-220.07-76.94-329.66-.86-3.53-6.42-2.41-5.55 1.14q12.06 49.13 24.34 98.2c27.18 109.56 52.69 219.42 69.8 331.07.55 3.61 6.1 2.47 5.55-1.13q-7.66-49.97-17.2-99.62z" fill="#090d10"/><path d="m3442.64 2342.64-76.16-55.59c-3-2.16-6.12 2.55-3.18 4.69l76.16 55.59c2.95 2.16 6.11-2.54 3.18-4.69zm61.03-30.71q-27.78 35.49-55.57 71c-2.25 2.88 2.46 6 4.69 3.18q27.78-35.49 55.57-71c2.25-2.88-2.46-6.03-4.69-3.18zm-36.03 143.07-82.36-45.18c-3.18-1.75-6.37 2.93-3.18 4.68l82.35 45.19c3.18 1.72 6.38-2.96 3.19-4.69z" fill="#090d10"/><path d="m3846.57 2404.89-52.52 63.11 22-60.37c-105.43 12.49-216.94 59.61-219.49 202.51 0 0 105.72 75 201.13 31.52a250.56 250.56 0 0 0 40-23.16l-49-32.4c1 .16 42.63 6.62 74.48 12.5 84.43-72.45 139-185.21 139-185.21s-72.17-13.63-155.6-8.5z" fill="#61b0e3"/><path d="m3733.17 2658.63c-27.45 0-53-6.18-73-13.13-38.38-13.32-64.57-31.74-65.66-32.52l-1.51-1.07v-1.85c1.17-66 25.58-117.47 72.55-152.89 36.8-27.75 87.28-45.6 150-53l5.65-.67-17.06 46.83 39.87-47.91 1.14-.91 1.12-.08c82.93-5.1 155.74 8.4 156.47 8.54l4.49.85-2 4.11c-.55 1.14-55.84 114.25-139.85 186.35l-1.27 1.09-1.64-.31c-19.89-3.67-43.3-7.52-58.46-10l39.81 26.33-4.2 2.95a255.21 255.21 0 0 1 -40.57 23.49c-21.95 10.05-44.5 13.8-65.88 13.8zm-133.08-50.33a289.06 289.06 0 0 0 62.58 30.65c34.34 11.9 85.39 21.48 133.56-.48a244.4 244.4 0 0 0 35.21-19.92l-57.93-38.31 15.73 2.39c.38.06 40.75 6.32 72.94 12.22 73.1-63.32 124-157.93 134.74-178.82-17-2.8-79.09-11.83-148.63-7.73l-64.41 77.37 26.92-73.87c-58.87 7.66-106.28 24.8-141 51-44.69 33.68-68.14 82.64-69.71 145.5z"/><path d="m3861.71 2478c-28.56 13.09-57 26.37-85.3 40.07-89 43.1-175.06 91.59-260.93 140.56-3.15 1.8-.66 6.89 2.51 5.08q40.94-23.34 82-46.5 129.42-72.6 264.23-134.13c3.32-1.57.78-6.64-2.51-5.08z" fill="#090d10"/><path d="m3858.83 2547.07-88.69-24.6c-3.5-1-5.33 4.39-1.82 5.36l88.69 24.6c3.5.97 5.33-4.43 1.82-5.36zm-110.11-93.9q-10.8 44.73-21.61 89.46c-.85 3.52 4.51 5.36 5.37 1.82l21.6-89.46c.85-3.52-4.51-5.37-5.36-1.82zm2.21 155.35c-27.41-11.57-54.75-23.31-82.15-34.88-3.37-1.42-5.16 4-1.82 5.36 27.4 11.58 54.74 23.31 82.14 34.88 3.37 1.42 5.16-3.95 1.83-5.36z" fill="#090d10"/><path d="m2804.45 596.74h-1534.45a62.82 62.82 0 0 0 -62.83 62.83v1052.71a62.84 62.84 0 0 0 62.83 62.84h1534.45a62.85 62.85 0 0 0 62.84-62.84v-1052.71a62.83 62.83 0 0 0 -62.84-62.83z" fill="#9de3fd"/><path d="m2804.45 1778.62h-1534.45a66.41 66.41 0 0 1 -66.33-66.34v-1052.71a66.4 66.4 0 0 1 66.33-66.33h1534.45a66.41 66.41 0 0 1 66.34 66.33v1052.71a66.42 66.42 0 0 1 -66.34 66.34zm-1534.45-1178.38a59.4 59.4 0 0 0 -59.33 59.33v1052.71a59.4 59.4 0 0 0 59.33 59.34h1534.45a59.41 59.41 0 0 0 59.34-59.34v-1052.71a59.41 59.41 0 0 0 -59.34-59.33z"/><g fill="#fff" opacity=".83"><path d="m1701.52 596.74 1165.77 892.3v-333.3l-682.39-559z" opacity=".4"/><path d="m1207.16 1465.71 453.26 309.41h821.31c-134.18-105.36-1274.57-843.73-1274.57-843.73z" opacity=".4"/></g><path d="m2804.45 596.74h-1534.45a62.82 62.82 0 0 0 -62.83 62.83v60.71h1660.12v-60.71a62.83 62.83 0 0 0 -62.84-62.83z" fill="#61b0e3"/><path d="m2870.79 723.78h-1667.12v-64.21a66.4 66.4 0 0 1 66.33-66.33h1534.45a66.41 66.41 0 0 1 66.34 66.33zm-1660.12-7h1653.12v-57.21a59.41 59.41 0 0 0 -59.34-59.33h-1534.45a59.4 59.4 0 0 0 -59.33 59.33z"/><circle cx="2489.76" cy="660.25" fill="#fff" r="18.8" transform="matrix(.38268343 -.92387953 .92387953 .38268343 926.980484 2707.820334)"/><path d="m2598.77 641.44a18.81 18.81 0 1 0 18.8 18.81 18.81 18.81 0 0 0 -18.8-18.81z" fill="#fff"/><circle cx="2707.78" cy="660.25" fill="#fff" r="18.8"/><path d="m1346.14 807.94h659.53v27.64h-659.53z" fill="#2a93d6"/><path d="m1346.14 869.49h248.67v27.66h-248.67z" fill="#208bcf"/><path d="m1655.64 869.49h390.05v27.66h-390.05z" fill="#fff"/><path d="m1818.91 931.08h369.28v27.64h-369.28z" fill="#fff"/><path d="m2108.39 869.49h181.18v27.66h-181.18z" fill="#fff"/><path d="m2348.5 869.49h248.66v27.66h-248.66z" fill="#fff"/><path d="m1346.14 931.08h426.88v27.64h-426.88z" fill="#208bcf"/><path d="m1346.14 1499.11h248.67v27.64h-248.67z" fill="#208bcf"/><path d="m1655.64 1499.11h390.05v27.64h-390.05z" fill="#fff"/><path d="m1818.91 1560.68h157.96v27.64h-157.96z" fill="#2a93d6"/><path d="m2108.39 1499.11h181.18v27.64h-181.18z" fill="#fff"/><path d="m1346.14 1560.68h426.88v27.64h-426.88z" fill="#2a93d6"/><path d="m1477.27 1035.39h248.67v27.64h-248.67z" fill="#fff"/><path d="m1786.77 1035.39h235.06v27.64h-235.06z" fill="#2a93d6"/><path d="m1950.06 1096.97h208.67v27.65h-208.67z" fill="#fff"/><path d="m2213.4 1096.97h344.68v27.65h-344.68z" fill="#fff"/><path d="m2067.19 1035.39h353.51v27.64h-353.51z" fill="#2a93d6"/><path d="m1477.27 1156.87h248.67v27.64h-248.67z" fill="#208bcf"/><path d="m1786.77 1156.87h235.06v27.64h-235.06z" fill="#fff"/><path d="m2067.19 1156.87h353.51v27.64h-353.51z" fill="#fff"/><path d="m2479.65 1035.39h248.66v27.64h-248.66z" fill="#fff"/><path d="m1477.27 1096.97h426.9v27.65h-426.9z" fill="#208bcf"/><path d="m1477.27 1639.87h248.67v27.64h-248.67z" fill="#208bcf"/><path d="m1786.77 1639.87h280.42v27.64h-280.42z" fill="#fff"/><path d="m2128.04 1639.87h464.62v27.64h-464.62z" fill="#2a93d6"/><path d="m1950.06 1407.8h208.67v27.64h-208.67z" fill="#fff"/><path d="m2213.4 1407.8h344.68v27.64h-344.68z" fill="#fff"/><path d="m1477.27 1338.26h248.67v27.64h-248.67z" fill="#208bcf"/><path d="m1786.77 1338.26h235.06v27.64h-235.06z" fill="#fff"/><path d="m2067.19 1338.26h353.51v27.64h-353.51z" fill="#2a93d6"/><path d="m1477.27 1407.8h426.9v27.64h-426.9z" fill="#2a93d6"/><path d="m2107.47 1246.93h208.66v27.65h-208.66z" fill="#fff"/><path d="m1634.71 1246.93h426.89v27.65h-426.89z" fill="#2a93d6"/><ellipse cx="2314.57" cy="2690.98" fill="#8cd8f4" rx="1466.35" ry="69.02"/><path d="m3333.75 1505.56c-70.11.4-142.42-10.32-216.46-29.68a87.26 87.26 0 0 0 -15.55-2.62c-20.51-1.52-75.59-5.81-93.81-9.39a15.8 15.8 0 0 0 -8.15.59l-49.17 16.64a19.67 19.67 0 0 0 -9.85 7.39c-7.4 10.63-23.3 34.64-26.17 48.48a5.56 5.56 0 0 0 7.74 6.26c3.92-1.81 9.32-6.35 16.27-16.61l-9.15 30.9c-1.33 4.48 1.42 9.45 6.06 10.07s10.35-1.61 15.34-12.84l15.49-36 9.53-8.68-25.17 50.06a4.07 4.07 0 0 0 .71 4.68c2.57 2.65 7.64 5.85 14.11-.16 0 0 5.12-5.93 11-13.44-1.67 6.14 9.26 8.94 27.27.48l46.44-19c23 9.44 45.26 12.25 66.37 4.5l22.14 4.79a74.4 74.4 0 0 1 10.35 3l80.44 30.18a328.07 328.07 0 0 0 102.64 20.67 45.17 45.17 0 1 0 1.58-90.31zm-348.75 37.19a31.49 31.49 0 0 0 -4.19 3c5.63-7.55 11-15.6 12.62-20.6l23.47-8.37a18.68 18.68 0 0 1 2.32-.68l17.39-3.89z" fill="#e9ba80"/><path d="m3333.75 1505.56c-70.11.4-142.42-10.32-216.46-29.68a87.26 87.26 0 0 0 -15.55-2.62c-20.51-1.52-75.59-5.81-93.81-9.39a15.8 15.8 0 0 0 -8.15.59l-49.17 16.64a19.67 19.67 0 0 0 -9.85 7.39c-7.4 10.63-23.3 34.64-26.17 48.48a5.56 5.56 0 0 0 7.74 6.26c3.92-1.81 9.32-6.35 16.27-16.61l-9.15 30.9c-1.33 4.48 1.42 9.45 6.06 10.07s10.35-1.61 15.34-12.84l15.49-36 9.53-8.68-25.17 50.06a4.07 4.07 0 0 0 .71 4.68c2.57 2.65 7.64 5.85 14.11-.16 0 0 5.12-5.93 11-13.44-1.67 6.14 9.26 8.94 27.27.48l46.44-19c23 9.44 45.26 12.25 66.37 4.5l22.14 4.79a74.4 74.4 0 0 1 10.35 3l80.44 30.18a328.07 328.07 0 0 0 102.64 20.67 45.17 45.17 0 1 0 1.58-90.31zm-348.75 37.19a31.49 31.49 0 0 0 -4.19 3c5.63-7.55 11-15.6 12.62-20.6l23.47-8.37a18.68 18.68 0 0 1 2.32-.68l17.39-3.89z" fill="#fff"/><path d="m3333.94 1599.41c-.63 0-1.27 0-1.9 0a331.08 331.08 0 0 1 -103.73-20.89l-80.45-30.18a70 70 0 0 0 -9.85-2.9l-21.17-4.57c-19.94 7-41.75 5.59-66.6-4.36l-45 18.47c-13.08 6.12-24.39 7.3-29.61 3.1-4.19 5.19-7.38 8.89-7.42 8.94a2.37 2.37 0 0 1 -.27.28c-6.26 5.82-13.37 5.83-19 0a7.22 7.22 0 0 1 -1-1.32c-4.52 4.81-9.2 5.57-12.82 5.1a10.7 10.7 0 0 1 -7.55-4.84 11.68 11.68 0 0 1 -1.41-9.69l4.35-14.69a27.47 27.47 0 0 1 -6.63 4.57 8.94 8.94 0 0 1 -9.38-1.11 9.1 9.1 0 0 1 -3.26-9c2.91-14.08 18-37.23 26.72-49.77a22.92 22.92 0 0 1 11.6-8.7l49.17-16.65a19.32 19.32 0 0 1 10-.7c17.83 3.5 71.25 7.69 93.39 9.33a91.37 91.37 0 0 1 16.17 2.72c76.49 20 149 30 215.56 29.57h.28a48.68 48.68 0 0 1 -.07 97.35zm-217.34-65.72a3.81 3.81 0 0 1 .74.08l22.14 4.79a76.56 76.56 0 0 1 10.84 3.18l80.44 30.19a324.66 324.66 0 0 0 101.55 20.45 41.68 41.68 0 1 0 1.7-83.32h-.24c-67.18.38-140.29-9.64-217.37-29.79a82.81 82.81 0 0 0 -14.92-2.52c-22.27-1.65-76-5.87-94.22-9.45a12.48 12.48 0 0 0 -6.36.47l-49.16 16.65a16 16 0 0 0 -8.1 6.07c-6.78 9.74-22.85 33.85-25.62 47.19a2.11 2.11 0 0 0 .76 2.14 1.93 1.93 0 0 0 2.08.24c2.93-1.36 7.88-5.13 14.84-15.4a3.5 3.5 0 0 1 6.25 2.95l-9.15 30.9a4.79 4.79 0 0 0 .57 3.9 3.7 3.7 0 0 0 2.6 1.71c5.37.71 9.32-5.47 11.69-10.79l15.47-35.92a3.44 3.44 0 0 1 .86-1.21l9.53-8.67a3.5 3.5 0 0 1 5.48 4.16l-25.18 50a.59.59 0 0 0 .1.67c2.89 3 5.69 2.93 9.08-.15.83-1 5.52-6.47 10.76-13.17a3.49 3.49 0 0 1 4.32-1 2 2 0 0 1 .32.18l-.06-.06a3.5 3.5 0 0 1 -.39-4.63c8.46-11.33 11.25-16.89 12.1-19.56a3.49 3.49 0 0 1 2.16-2.24l23.46-8.37a23.64 23.64 0 0 1 2.73-.79l17.39-3.89a3.5 3.5 0 0 1 2.55 6.42l-51.6 30.58a28.76 28.76 0 0 0 -3.75 2.64 2.5 2.5 0 1 0 -3.1 3.76 1.09 1.09 0 0 0 0 .31c.62 1.1 7.82 3 22.46-3.91l.16-.07 46.43-19a3.5 3.5 0 0 1 2.66 0c24.12 9.91 45 11.37 63.83 4.46a3.59 3.59 0 0 1 1.17-.18zm-120.5-5.84a47.38 47.38 0 0 1 -3.07 6.05l21-12.44z"/><path d="m3011.5 1472.26a2.5 2.5 0 0 0 -.85.15l-26 9.3c-2.26.81-4.63 1.59-6.91 2.35a132.74 132.74 0 0 0 -16.63 6.36c-6.9 3.38-10.84 9.32-14.59 15.62-4 6.77-7.95 14.06-11.63 21.67a2.12 2.12 0 0 0 .07 2.1 2.49 2.49 0 0 0 2.12 1.11 2.46 2.46 0 0 0 2.25-1.41c3.7-7.63 7.7-15 11.9-22 3.88-6.44 7.94-11.31 15.17-14.15 10.22-4 20.82-7.7 31.06-11.26 4.95-1.72 10.07-3.5 15.08-5.3a2.08 2.08 0 0 0 1.43-2.4 2.57 2.57 0 0 0 -2.47-2.14z"/><path d="m3011 1473.36-26 9.31c-7.76 2.77-16 5-23.44 8.66-6.63 3.26-10.48 9.05-14.16 15.23-4.19 7-8 14.24-11.6 21.59-.77 1.6 1.84 2.5 2.61.92q5.47-11.31 11.94-22.08c4-6.68 8.26-11.66 15.67-14.58 15.2-6 30.8-11.06 46.18-16.57 1.69-.6.45-3.07-1.2-2.48z"/><path d="m3021.43 1485.24c-9.32 2.93-18.06 7.27-26.85 11.47-4.54 2.16-9.28 4.12-13.64 6.64a16.87 16.87 0 0 0 -7.49 7.77c-.71 1.64 1.9 2.54 2.61.92 1.81-4.14 5.86-6.21 9.73-8.07s7.9-3.77 11.84-5.66c8-3.8 15.89-7.7 24.32-10.35 1.68-.53 1.17-3.25-.52-2.72z" fill="#e9ba80"/><path d="m3781.86 1116.12c-24.66 12.83-48.33-10.84-25.64-16.76s35.5-52.28-4.93-49.32-57.21-25.64-60.16-52.26 2.95-165.7-105.53-186.41c-67.22-12.83-99.61 5-115 31.47-9.45 16.23-12.47 35.72-13.22 53.35-2 46.36-30.58 55.23-39.46 65.09s-2 11.84 14.8 19.72 9.86 12.83 19.73 52.28 63.57 43.39 63.57 43.39 8.42 24.66 10.39 59.18c1.08 18.85-5.25 37-11.22 49.5a10.87 10.87 0 0 0 11.23 15.4c37.78-4.76 62-18.34 76.8-30.76s20.2-23.75 20.2-23.75 19.6 8.66 45.9 27.23c169.54 37.62 137.2-70.16 112.54-57.35z" fill="#fff"/><path d="m3525 1204.34a14.37 14.37 0 0 1 -12.95-20.5c5.54-11.66 11.94-29.41 10.88-47.79a252.73 252.73 0 0 0 -9.53-56.13c-11-1.29-55.08-8.78-64.33-45.79-3.29-13.18-4.75-22.58-5.81-29.45-2.09-13.57-2.47-16-12-20.51l-3.83-1.79c-9.75-4.52-15.64-7.25-16.71-12.48-.86-4.2 2-8.07 4.63-11a57.55 57.55 0 0 1 8.46-7c12.08-8.9 28.62-21.09 30.1-55.87 1-22.83 5.46-40.81 13.7-55 19.36-33.32 59.29-44.47 118.66-33.13 99.41 19 105.33 134 107.56 177.31.27 5.22.49 9.35.79 12.14 5.45 49.06 44.58 50 56.43 49.16 23.71-1.73 28.63 12.21 29.63 18.28 2.55 15.37-9.12 34.15-23.56 37.92-3.73 1-6.16 2.56-6.49 4.25s1 3.68 3.39 5.45c5.58 4.18 15.86 6 26.25.57 5.48-2.85 11.74-1.47 16.75 3.69 4.18 4.31 7.09 10.82 8 17.88a37.16 37.16 0 0 1 -4.44 23c-9 16.16-38.17 40.15-132 19.33l-.69-.15-.57-.41a317.12 317.12 0 0 0 -42.42-25.52 91.66 91.66 0 0 1 -19.41 21.87c-13.85 11.62-38.72 26.53-78.61 31.55a15 15 0 0 1 -1.88.12zm20.12-393.69c-34.38 0-58.34 11.35-71.47 33.94-7.66 13.16-11.83 30.08-12.76 51.75-1.62 38.13-20.47 52-32.93 61.2a53.67 53.67 0 0 0 -7.42 6.08c-3.08 3.42-3 4.66-3 4.87.36 1.78 6.68 4.71 12.79 7.54l3.87 1.81c12.91 6.08 13.8 11.84 16 25.77 1 6.73 2.46 15.95 5.68 28.82 9.13 36.5 59.93 40.71 60.44 40.75l2.3.17.75 2.19c.35 1 8.6 25.51 10.57 60.11 1.14 19.85-5.65 38.8-11.55 51.2a7.18 7.18 0 0 0 .68 7.4 7.36 7.36 0 0 0 7 3c38.19-4.82 61.85-19 75-30 14-11.75 19.24-22.47 19.29-22.58l1.47-3.06 3.11 1.37c.8.35 19.94 8.88 45.92 27.16 36.76 8.1 66.59 9.89 88.67 5.33 17-3.53 29.16-10.93 35-21.4 7.34-13.13 3-26.93-2.47-32.54-2-2.06-5.09-4.14-8.5-2.36-9.43 4.9-23.5 6.44-33.67-1.17-4.64-3.48-6.91-8.11-6.07-12.4.52-2.63 2.71-7.37 11.6-9.69 11.1-2.89 20.4-18 18.42-30-1.51-9.09-9.19-13.39-22.22-12.44-19.33 1.42-35.55-4.15-46.92-16.11-9.21-9.68-15.24-23.62-17-39.26-.34-3-.55-7.21-.83-12.55-1.07-20.93-3.08-59.88-16.69-95.18-16.4-42.52-45.06-68-85.19-75.62a214.29 214.29 0 0 0 -39.88-4.1z"/><path d="m3465.05 1018.35-1.51-6.83c18.65-4.15 18.92-34.12 18.92-34.42h7a68.72 68.72 0 0 1 -2.86 18.14c-3.93 12.86-11.38 20.85-21.55 23.11zm51.49 61.78-1-6.92c15.48-2.3 20.44-7.3 20.48-7.35l5.19 4.7c-.63.7-6.59 6.89-24.67 9.57zm-46.83-161.34c-3 0-5.41 4.31-5.41 9.63s2.42 9.64 5.41 9.64 5.42-4.31 5.42-9.64-2.43-9.63-5.42-9.63z"/><path d="m2745.42 1903.68-11 445.87a266.14 266.14 0 0 1 -42.57 169.63l-21.32 32.49a244.23 244.23 0 0 1 -53.14 57.5c54.82 35.79 168.08-61.2 217.25-107.61-4.34-23.65-23-55.29-31.57-67.81 59.51-180.83 97.7-446.54 77.39-538.95z" fill="#fff"/><path d="m2645.65 2620.43q-17.37 0-30.15-8.33l-4.08-2.66 3.82-3a240.48 240.48 0 0 0 52.38-56.69l21.32-32.48a263.7 263.7 0 0 0 42-167.4v-.2l11.06-449.27 141.25-9.29.65 2.94c9.76 44.43 6.59 131-8.71 237.57-15.18 105.63-40 215.43-68.24 301.59 9.46 14.13 26.9 44.51 31.15 67.72l.34 1.87-1.38 1.3c-26.37 24.9-66.36 59.86-107.06 85.06-33.64 20.84-61.86 31.27-84.35 31.27zm-22.05-11.74c22.7 11.24 57.21 2.69 102.71-25.48 39.5-24.45 78.4-58.3 104.54-82.87-4.48-21.09-20.61-50-30.64-64.61l-1-1.43.54-1.65c58.49-177.72 96.59-440.07 77.91-534.16l-128.82 8.51-10.84 442.44a270.7 270.7 0 0 1 -43.16 171.66l-21.32 32.49a246.75 246.75 0 0 1 -49.92 55.1z"/><path d="m2823.51 2469.74c-49.16 46.41-151.28 175.22-206.1 139.43-3.9 3.1-8 6.12-12.11 9-14.66 10.22-24.75 19.5-31.68 27.3-8.27 9.22-1.47 24 11 24h68.54a103.3 103.3 0 0 0 68.94-26.43l46.14-41.64 12-6v74.12h34l21.83-130.52.14-1c1.68-8.07-.14-28-1.55-36.45a136.73 136.73 0 0 0 -11.15-31.81zm-247.8 0c-.54.54-1.14 1.15-1.82 1.82-28.11 28.18-150.19 145.55-218.72 131.43a153 153 0 0 1 -22.27 9c-22.73 7.2-38 15-48.22 22.33-13.52 9.62-7.27 30.87 9.28 31.61l76.27 3.43a89.55 89.55 0 0 0 55.63-16.21l42.64-29.86a105.18 105.18 0 0 1 45.06-17.89l6.12-1v65h34s16.86-102.16 17.15-102.64c21.37-35.5-.27-91.86 4.88-97.02z" fill="#fff"/><path d="m2814.29 2497.78c-49.17 46.41-128 193.57-196.88 111.39-3.9 3.1-8 6.12-12.11 9-14.66 10.22-24.75 19.5-31.68 27.3-8.27 9.22-1.47 24 11 24h68.54a103.3 103.3 0 0 0 68.94-26.43l46.14-41.64 12-6v74.12h34l21.83-130.52.14-1c1.68-8.07-10.42-24.91-11.83-33.38-2.21-10.84-6.03-9.35-10.09-6.84zm-254.07 8.68c-28.12 28.18-146.15 149-205 96.53a153 153 0 0 1 -22.27 9c-22.73 7.2-38 15-48.22 22.33-13.52 9.62-7.27 30.87 9.28 31.61l76.27 3.43a89.55 89.55 0 0 0 55.63-16.21l42.64-29.86a105.18 105.18 0 0 1 45.06-17.89l6.12-1v65h34s16.86-102.16 17.15-102.64c21.32-35.5-6.96-63.98-10.66-60.3z" fill="#383838"/><path d="m2817.24 2672.94h-40.49v-71.94l-6.55 3.29-45.79 41.31a106.6 106.6 0 0 1 -71.28 27.34h-68.54a17.91 17.91 0 0 1 -16.52-10.74 17.51 17.51 0 0 1 2.95-19c8.24-9.29 19.11-18.66 32.28-27.84 4.36-3.08 8.38-6.07 11.94-8.89l2-1.57 2.11 1.38c42 27.41 118.22-52.46 168.67-105.31 12.73-13.34 23.73-24.87 33.12-33.73l3.48-3.29 2.08 4.32a139.5 139.5 0 0 1 11.42 32.63v.12c1.4 8.42 3.35 28.67 1.55 37.62l-.14 1zm-33.49-7h27.56l21.3-127.44.17-1.2c1.56-7.49-.18-26.79-1.56-35.1a127.1 127.1 0 0 0 -8.82-26.54c-8.48 8.23-18.25 18.47-29.35 30.1-54.31 56.91-128.4 134.52-175.39 107.67-3.16 2.44-6.63 5-10.34 7.62-12.74 8.88-23.19 17.88-31.08 26.77a10.45 10.45 0 0 0 -1.77 11.53 11 11 0 0 0 10.12 6.59h68.54a99.61 99.61 0 0 0 66.6-25.54l46.48-41.94 17.54-8.82z"/><path d="m3519.94 1175.66-48.84 42.12a52.91 52.91 0 0 1 -6.45 5.7c-136.47 101.74-192.29 143.74-137.56 259.09l-4.15 65.31c-1.51 38.62-38.28 128.44-38.28 128.44l248.82 44.61s73.93-213.76 134.06-357.89c54.71-131.18-46.2-252.82-46.2-252.82-16.22 36.87-47.69 60.67-101.4 65.44z" fill="#fff"/><path d="m3617.59 1137.06c-25.19 32.79-43.94 33.83-97.65 38.6l-48.84 42.12a52.91 52.91 0 0 1 -6.45 5.7c-136.47 101.74-168.74 153.82-114 269.17l-18.07 85.83c-1.52 38.62-47.9 97.84-47.9 97.84l248.82 44.61s73.93-213.76 134.06-357.89c54.69-131.18-49.97-225.98-49.97-225.98z" fill="#f49b2e"/><path d="m3535.81 1724.9-256-45.89 1.64-4c.36-.89 36.55-89.69 38-127.26l4.1-64.49c-26.83-56.92-27.51-98-2.32-137.22 24.64-38.36 73.59-74.85 141.34-125.36a49.08 49.08 0 0 0 6-5.31l.24-.23 49.7-42.86 1.12-.1c49.46-4.38 81.68-25.11 98.5-63.36l2.28-5.18 3.59 4.36c1 1.26 25.8 31.38 44.18 78.17 10.81 27.52 17.1 55 18.69 81.83a215.4 215.4 0 0 1 -16.13 96.39c-59.4 142.39-133.24 355.56-134 357.69zm-246.29-51.26 241.64 43.36c9-25.81 77.4-221.63 133.15-355.27a208.4 208.4 0 0 0 15.6-93.29c-1.54-26-7.67-52.85-18.21-79.68a319.71 319.71 0 0 0 -39.62-71.83c-8.51 17.14-20.41 30.91-35.43 41-17.25 11.59-39.2 18.71-65.28 21.16l-47.86 41.28a55 55 0 0 1 -6.77 6c-67.16 50.07-115.68 86.24-139.63 123.53-24.15 37.62-23.25 75.65 3.14 131.26l.39.82-4.2 66.21c-1.36 34.4-29.69 107.35-36.92 125.45z"/><path d="m2709.09 1827.26a66.7 66.7 0 0 0 -6.73 15.4c-38.67 122.21-199.29 595.05-199.29 595.05l-96 123.08a149.29 149.29 0 0 1 -51.86 42.17c39.21 8.07 96-26.9 142.66-63.63a905.28 905.28 0 0 0 76.07-67.79l1.81-1.82v-4.17s144.25-263.93 207.19-378.55c35.31-64.23 45.87-148 44.12-148a250.12 250.12 0 0 1 82-20.58c6.52-35.92 15-87.85 21.39-128.47 1.54-9.48 3-18.36 4.17-26.3-106.96 12.22-205.89 32-225.53 63.61z" fill="#fff"/><path d="m2367.33 2607.64a63.5 63.5 0 0 1 -12.87-1.25l-10-2.06 9.15-4.51a146.73 146.73 0 0 0 50.64-41.18l95.75-122.64c6.37-18.76 161.45-475.52 199.07-594.41a69.15 69.15 0 0 1 7.09-16.19c9.71-15.62 36.57-28.91 82.13-40.62 36.89-9.48 86-17.77 146-24.64l4.55-.52-.69 4.53c-1.15 7.55-2.56 16.41-4.18 26.33-7.87 50.06-15.87 98.11-21.4 128.53l-.48 2.66-2.69.21a245.74 245.74 0 0 0 -78.61 19.31 130.88 130.88 0 0 1 -1.55 13.59c-1.64 10.87-4.18 23.73-7.16 36.21-6.2 26-17.47 64-36 97.7-60.54 110.21-198 361.7-206.8 377.75v4.72l-2.84 2.84a913.61 913.61 0 0 1 -76.38 68.07c-55.45 43.58-99.98 65.57-132.73 65.57zm-.49-7c30.9.1 75.08-21.76 128.82-64a907.53 907.53 0 0 0 75.76-67.52l.79-.79v-3.61l.43-.79c1.44-2.64 145-265.24 207.23-378.54 31.1-56.58 42.77-127.64 43.81-143l-11.88-.46 13.85-6.11a252.42 252.42 0 0 1 80.43-20.65c5.5-30.47 13.26-77.15 20.9-125.74 1.3-8 2.47-15.29 3.47-21.75-89.74 10.48-198.56 29.55-218.39 61.47a62.53 62.53 0 0 0 -6.36 14.6c-38.25 120.85-197.71 590.39-199.31 595.12l-.2.56-96.41 123.55a153.46 153.46 0 0 1 -42.94 37.64z"/><path d="m2374.16 2673q-2 0-4.08-.09l-76.28-3.43a20.92 20.92 0 0 1 -11.15-38c12-8.6 28.55-16.28 49.2-22.82a149.26 149.26 0 0 0 21.75-8.8l1.09-.55 1.18.25c67.42 13.89 191.38-106.25 215.55-130.47l1.8-1.81 5 4.95a1.36 1.36 0 0 0 .34-.49c-.6 1.69.59 9.17 1.64 15.77 3.29 20.74 8.79 55.36-6 80.59-1.24 6.63-12.6 75.22-17 101.92l-.48 2.93h-40.51v-64.41l-2 .32h-.13a102.26 102.26 0 0 0 -43.56 17.3l-42.66 29.84a93.56 93.56 0 0 1 -53.7 17zm-18.5-66.31a157.65 157.65 0 0 1 -21.7 8.69c-19.94 6.31-35.84 13.66-47.24 21.83a13.92 13.92 0 0 0 7.4 25.27l76.27 3.43a86.57 86.57 0 0 0 53.45-15.57l42.65-29.87a109.24 109.24 0 0 1 46.57-18.49c2.06-.33 4.11-.66 6-1l4.09-.71v65.7h27.57c16.49-99.89 16.65-100.16 17.12-100.94 13.85-23.08 8.55-56.46 5.38-76.41-.63-4-1.15-7.25-1.48-10-16.7 16.45-51.24 49.05-90 77.37-53.63 39.13-96.04 56.18-126.08 50.66z"/><path d="m3284.66 1676.35-19.34 49.09s-180 5.57-330.7 38.2c-6.52 41.71-17.48 110.45-25.55 154.77a247.54 247.54 0 0 1 48.89 1l477.41 18c39.62 4.37 135.31-13.44 98.12-216.52z" fill="#fff"/><path d="m3284.66 1676.35-19.34 49.09s-166.68 25.65-317.36 58.28c-6.52 41.7-30.82 90.37-38.89 134.69a247.54 247.54 0 0 1 48.89 1l456.37 3c39.62 4.38 133.14 18.74 96-184.33z" fill="#006aad"/><path d="m3445.53 1941.48a96.26 96.26 0 0 1 -10.41-.55l-477.43-18h-.14a244.46 244.46 0 0 0 -48.21-1l-4.53.36.81-4.48c8.31-45.63 19.57-116.49 25.55-154.68l.37-2.37 2.34-.51c140.1-30.33 307.49-37.39 329-38.19l19.56-49.63 254 45.5.44 2.39c16.91 92.38 8.64 157.31-24.59 193-22.11 23.76-49.54 28.16-66.76 28.16zm-487.29-25.55 477.39 18h.13c13 1.43 46.06 1.83 71.47-25.45 14.14-15.18 23.59-36.68 28.09-63.89 5.35-32.32 3.72-72.92-4.84-120.69l-243.61-43.63-19.14 48.57-2.3.07c-1.79.06-179.55 5.88-327.72 37.62-5.87 37.46-16.34 103.26-24.4 148a251.91 251.91 0 0 1 44.93 1.4z"/><path d="m3616.34 1216.53a84.48 84.48 0 0 0 -118.93 50.28l-89.35 287.84c-67.45-15.28-134.95-40-202.49-72.38a97 97 0 0 0 -16.44-6.15c-22.09-6-81.39-22.31-100.54-30.08a17.62 17.62 0 0 0 -9-1.07l-57.25 7.8a21.87 21.87 0 0 0 -12.33 6c-10.33 10.06-32.78 32.94-38.84 47.46a6.19 6.19 0 0 0 7.14 8.48c4.66-1.15 11.51-5 21.28-14.72l-16.59 31.83c-2.4 4.62-.44 10.63 4.5 12.28s11.65.44 19.48-10.78l24.52-36 12.26-7.48-38.09 49.39a4.53 4.53 0 0 0 -.22 5.26c2.26 3.45 7.12 8 15.46 2.82 0 0 6.85-5.4 14.86-12.38-3.12 6.36 8.23 11.74 29.71 6.3l54.77-11c23.14 15.18 46.88 23 71.58 19l23.2 9.9a83.41 83.41 0 0 1 10.67 5.51l81.54 50a365.15 365.15 0 0 0 107.81 44.27 49.85 49.85 0 0 0 13.6 1.22c100.18 7.85 137.41-144.39 199-335.9 12.79-39.64 25.72-88.89-11.31-107.7zm-569.53 310.87a36.33 36.33 0 0 0 -5.21 2.35c7.75-7.06 15.36-14.72 18.15-19.85l27.42-4.19a21.88 21.88 0 0 1 2.68-.25l19.83-.58z" fill="#fff"/><path d="m3436.07 1663.82q-3.69 0-7.45-.29a53.8 53.8 0 0 1 -14.34-1.32 368.27 368.27 0 0 1 -108.84-44.69l-81.54-50a80.17 80.17 0 0 0 -10.21-5.28l-22.28-9.51c-23.25 3.48-46.77-2.69-71.84-18.85l-53.29 10.71c-15.57 3.93-28.11 2.83-32.74-2.87l-.13-.17c-5.83 4.93-10.24 8.41-10.3 8.46l-.31.22c-7.88 4.91-15.45 3.46-20.24-3.87a7.85 7.85 0 0 1 -1-2.08c-6 4.52-11.32 4.41-15.17 3.12a11.51 11.51 0 0 1 -7-6.65 12.59 12.59 0 0 1 .5-10.56l8.52-16.42a32 32 0 0 1 -9.33 4.31 9.57 9.57 0 0 1 -9.62-3.06 9.76 9.76 0 0 1 -1.59-10.17c6.14-14.71 27.46-36.77 39.63-48.62a25.25 25.25 0 0 1 14.29-7l57.25-7.8a21.22 21.22 0 0 1 10.83 1.3c18.76 7.61 76.28 23.48 100.14 30a100.28 100.28 0 0 1 17 6.36c68.33 32.73 135.13 56.74 198.6 71.4l88.38-284.74a88 88 0 0 1 123.87-52.36c42.2 21.43 23.28 80.21 13.12 111.78-5.88 18.3-11.57 36.3-17.07 53.71-26.32 83.36-49.06 155.35-76.86 206.4-28.98 53.38-61.26 78.54-100.98 78.54zm-7.39-7.3h.27c40.2 3.15 72.61-20.55 102-74.58 27.47-50.45 50.11-122.15 76.33-205.16 5.5-17.42 11.19-35.43 17.08-53.74 13.18-41 24.4-86.12-9.63-103.4a81 81 0 0 0 -114 48.2l-89.35 287.84a3.49 3.49 0 0 1 -4.12 2.37c-64.91-14.71-133.29-39.14-203.22-72.63a93.27 93.27 0 0 0 -15.84-5.93c-24-6.5-81.82-22.46-100.94-30.21a14.27 14.27 0 0 0 -7.25-.86l-57.25 7.81a18.31 18.31 0 0 0 -10.36 5c-9.48 9.23-32.18 32.23-38.05 46.3a2.77 2.77 0 0 0 .44 2.91 2.57 2.57 0 0 0 2.62.83c3.54-.88 9.82-4 19.66-13.81a3.5 3.5 0 0 1 5.57 4.09l-16.52 31.84a5.7 5.7 0 0 0 -.22 4.71 4.49 4.49 0 0 0 2.72 2.64c6 2 11.72-4 15.5-9.47l24.5-36a3.59 3.59 0 0 1 1.07-1l12.25-7.47a3.5 3.5 0 0 1 4.6 5.12l-38.09 49.39a1 1 0 0 0 -.06 1.21c2.68 4.09 5.93 4.66 10.52 1.86 1.06-.84 7.38-5.89 14.57-12.15a3.5 3.5 0 0 1 5.44 4.18c-.25.53-.15.66 0 .89 1.81 2.24 10.39 4.34 25.67.47h.17l54.77-11a3.48 3.48 0 0 1 2.61.51c24.35 16 47 22 69.1 18.41a3.48 3.48 0 0 1 1.94.24l23.2 9.9a86 86 0 0 1 11.12 5.75l81.54 50a361 361 0 0 0 106.78 43.84 46.94 46.94 0 0 0 12.65 1.14zm-387.08-123.27a3.5 3.5 0 0 1 -2.35-6.09c11.68-10.64 15.93-16.17 17.43-18.93a3.45 3.45 0 0 1 2.55-1.79l27.41-4.19a26.82 26.82 0 0 1 3.11-.29l19.82-.57a3.5 3.5 0 0 1 1.29 6.79l-62.86 22.52a32.5 32.5 0 0 0 -4.71 2.12 3.5 3.5 0 0 1 -1.69.43zm20.31-20.14a56.16 56.16 0 0 1 -5.74 7.22l30.91-11.07z"/><path d="m3090.2 1456h-.43l-30.35 4.68c-2.65.41-5.4.77-8.05 1.11a147.92 147.92 0 0 0 -19.5 3.44c-8.23 2.23-13.78 7.87-19.2 14-5.83 6.54-11.65 13.68-17.28 21.22a2.21 2.21 0 0 0 -.27 2.39 2.74 2.74 0 0 0 2.44 1.45 2.57 2.57 0 0 0 2.11-1.07c5.66-7.56 11.6-14.81 17.66-21.54 5.62-6.23 11.11-10.71 19.64-12.3 12-2.23 24.4-4 36.35-5.75 5.77-.83 11.73-1.7 17.58-2.6a2.24 2.24 0 0 0 2-2.46 2.74 2.74 0 0 0 -2.7-2.57z"/><path d="m3089.93 1457.07-30.35 4.68c-9.06 1.4-18.59 2.12-27.45 4.52-7.94 2.15-13.37 7.67-18.7 13.65q-9.07 10.18-17.23 21.15c-1.18 1.59 1.49 3.12 2.66 1.55q8.37-11.19 17.72-21.61c5.81-6.45 11.48-11 20.2-12.62 17.87-3.32 36-5.59 54-8.35 1.92-.31 1.08-3.27-.85-2.97zm9.07 14.16h-.32c-9.95 1.14-19.75 3.71-29.23 6.19l-2.67.7c-1.59.41-3.19.8-4.8 1.19-3.84.93-7.8 1.9-11.59 3.21-4.68 1.61-8.06 4-10.33 7.3a2.29 2.29 0 0 0 -.19 2.43 2.76 2.76 0 0 0 2.4 1.41 2.55 2.55 0 0 0 2.12-1.13c2.54-3.69 6.83-5.06 11.76-6.36l9.56-2.5 6.55-1.7c8.67-2.27 17.63-4.61 26.65-5.64a2.69 2.69 0 0 0 2.37-2.88 2.25 2.25 0 0 0 -2.28-2.22z"/><path d="m3098.83 1472.26c-10.8 1.23-21.27 4.12-31.77 6.85-5.42 1.41-11 2.55-16.31 4.38-4 1.37-7.42 3.42-9.82 6.92-1.13 1.63 1.53 3.17 2.65 1.55 2.85-4.14 7.72-5.55 12.35-6.77s9.42-2.45 14.13-3.68c9.49-2.47 19-5.06 28.76-6.18 1.95-.22 1.97-3.33.01-3.07z"/><path d="m3601.88 1203.84s-96.05-41.58-165.89 184.56l-32.11 60.39c89.93 43.86 168.78 56.09 204.25 50.24 11.2-30.5 39.69-148 50.37-181.21 12.72-39.53 4.08-93.18-56.62-113.98z" fill="#fff"/><path d="m3601.88 1203.84s-70.75-41.36-140.58 184.78l-20.76 55.45c89.92 43.86 132.12 60.81 167.59 55 11.2-30.5 39.69-148 50.37-181.21 12.72-39.57 4.08-93.22-56.62-114.02z" fill="#f49b2e"/><path d="m3589.09 1503.89c-17.78 0-39.84-2.71-63.42-7.92-39.47-8.71-82.12-23.94-123.32-44l-3.26-1.59 33.65-63.29c16.91-54.64 36.83-98.35 59.24-129.91 17.81-25.1 37.19-42.58 57.6-52 29.8-13.71 51.41-5.47 53.55-4.59 60.19 20.68 72.86 74.32 58.7 118.32-4.66 14.48-12.77 45.24-21.35 77.8-11.17 42.42-22.73 86.28-29.06 103.55l-.71 1.92-2 .33a122 122 0 0 1 -19.62 1.38zm-180.41-56.67c84.74 40.73 160.55 53.73 196.86 48.67 6.36-18.18 17.44-60.25 28.18-101 8.6-32.66 16.73-63.5 21.44-78.16 6.8-21.13 6.55-43-.7-61.68-8.68-22.28-27.25-38.85-53.71-47.91l-.25-.1a44.93 44.93 0 0 0 -13.57-2.62c-7.79-.45-20.13.44-34.72 7.22-55.94 26-92.26 111-112.88 177.78l-.09.31-.16.3zm373.18-331.1c-24.66 12.83-48.33-10.84-25.64-16.76s35.5-52.28-4.93-49.32-57.21-25.64-60.16-52.26 2.95-165.7-105.53-186.41c-20.83-4-38.32-5-53-3.74-19.14 1.63-33.5 7.17-44.24 15.15a66 66 0 0 0 -17.76 20.06c.07 29.55 7.53 66.39 38.39 91.53 0 0 5.94-12.11 16.3-20.37 6.31-5 14.27-8.65 23.52-7.2a30.91 30.91 0 0 1 8.49 2.69c29.28 13.9 27.09 59.29-8 72.47 0 0-24.12 149.81 54 188 44.11 25.86 20.2-23.75 20.2-23.75s4.12 3.87 12 10.34a126.67 126.67 0 0 0 67 28.06c126.5 13.26 101.96-80.23 79.36-68.49z"/><path d="m3492.45 822.37c17.22 8.19 28.68 26.15 33.23 52.21a159.58 159.58 0 0 1 2 35.27 31.1 31.1 0 0 1 17.06-5.37c.84 0 1.69 0 2.53.11 10.61-54.63-4.73-82.66-15.43-94.88-15.64 1.46-28.84 5.71-39.39 12.66z" fill="#fff"/><path d="m3488.37 822.78c45 17.43 36.93 91.21 36.93 91.21 5.35-4.28 11.89-7.52 19.39-7.52a26.67 26.67 0 0 1 4.13.32c11.46-56.54-4-85.69-16.21-99.17-19.14 1.64-33.5 7.18-44.24 15.16zm57.21 79.71h-.89a31.88 31.88 0 0 0 -14.9 3.8 160.45 160.45 0 0 0 -2.14-32c-4.39-25.11-15.1-42.92-31.16-52 9.51-5.55 21.06-9 34.46-10.41 6.84 8.06 11.81 18.22 14.77 30.23 4.21 17 4.16 37.32-.14 60.38z"/><path d="m3680.46 1287a27.06 27.06 0 0 0 -33.64 18.24c-37.2 125.28-53.27 189.9-59.27 238.41-6.47 52.23-1.25 86 6.66 137.17 2.8 18.13 6 38.68 9.16 63.39 9.28 72.19 2 118.7-23 146.39-28 31.07-83.3 44.52-174 42.26-81-2-136.81-13.34-181.65-22.45-59.62-12.12-102.71-20.87-154.18 3.72a27.05 27.05 0 1 0 23.33 48.82 103 103 0 0 1 46-10.37l-149.34 719.42h21.7l173.54-714.12c8.68 1.61 18 3.5 28.21 5.58 46.92 9.53 105.31 21.4 191.09 23.52q10.32.26 20.12.25c15.47 0 30-.48 43.67-1.45l150 686.22h21.7l-126-691.92c47.54-8.9 81.66-26.3 105.94-53.22 36.33-40.29 47.92-100.51 36.48-189.53-3.27-25.39-6.5-46.31-9.35-64.76-14.8-95.7-18.32-118.44 51-351.91a27.06 27.06 0 0 0 -18.17-33.66z" fill="#19415b"/><path d="m3644.76 2675.48h-28.71l-150-686c-12.8.84-26.54 1.26-40.89 1.26-6.54 0-13.34-.09-20.2-.26-86.08-2.12-144.63-14-191.68-23.58-8.79-1.79-17.14-3.48-24.92-5l-173.36 713.58h-28.75l149.31-719.31a97.88 97.88 0 0 0 -40.12 9.94 30.56 30.56 0 0 1 -26.35-55.14c52.54-25.1 96.1-16.25 156.39-4 44.69 9.08 100.32 20.39 181 22.38 89.56 2.24 144-10.83 171.29-41.11 24.23-26.86 31.26-72.49 22.12-143.6-3.18-24.69-6.35-45.2-9.15-63.3-7.95-51.43-13.21-85.41-6.68-138.13 6-48.72 22.13-113.49 59.4-239a30.59 30.59 0 0 1 38-20.59 30.56 30.56 0 0 1 20.59 38c-69.1 232.71-65.61 255.3-50.91 350.38 2.86 18.44 6.09 39.34 9.37 64.84 11.58 90.11-.28 151.22-37.35 192.32-24.31 27-58.51 44.53-104.47 53.66zm-23.07-7h14.68l-125.81-691.22 3.42-.64c46.13-8.64 80.14-25.69 104-52.13 35.59-39.47 46.9-98.8 35.59-186.74-3.26-25.41-6.49-46.26-9.33-64.66-14.9-96.33-18.44-119.22 51.11-353.45a23.55 23.55 0 0 0 -45.16-13.41c-37.19 125.09-53.19 189.55-59.19 237.85-6.41 51.76-1.22 85.35 6.65 136.2 2.8 18.14 6 38.7 9.17 63.48 9.42 73.28 1.84 120.69-23.86 149.18-26.74 29.65-77.1 43.66-157.7 43.66q-9.22 0-19-.24c-81.33-2-137.29-13.38-182.26-22.52-59-12-101.55-20.64-152 3.45a23.55 23.55 0 1 0 20.31 42.5 107 107 0 0 1 47.45-10.71h4.31l-149.33 719.41h14.65l173.67-714.67 3.26.6c8.75 1.63 18.23 3.55 28.27 5.6 46.8 9.51 105 21.34 190.48 23.45 6.81.16 13.55.25 20 .25 15.32 0 29.93-.49 43.42-1.44l3-.22z"/><path d="m3303.46 1687.57h50.14v998.99h-50.14z" fill="#090d10"/><path d="m2171.86 1687.57h50.14v998.99h-50.14z" fill="#090d10"/><path d="m2037.22 1676.35h1415.56v96.12h-1415.56z" fill="#090d10"/><path d="m2037.22 1737.93h1415.56v10.09h-1415.56z" fill="#4b555c"/><path d="m3131.24 1655.31c-21.61-1-207.27-12.12-207.27-12.12l-103.13-386.38a24.27 24.27 0 0 0 -23.45-18h-452.28a23 23 0 0 0 -22.43 27.44l64 345.82 6.22 33.56a36.28 36.28 0 0 0 35.68 29.67h728.63s-4.37-18.98-25.97-19.99z" fill="#f68800"/><path d="m2345.11 1238.8a23 23 0 0 0 -22.43 27.44l64 345.82c37.95-5.32 252.41-110.47 209.6-373.26z" fill="#f68800"/><path d="m2797.39 1238.8h-15.45c4.37 6.75 9.53 17.3 14.7 33.74 13 41.37 100 370.65 100 370.65h27.36l-103.13-386.38a24.27 24.27 0 0 0 -23.48-18.01z" fill="#ca8530"/><path d="m2928.52 1646.69h-34.52l-.68-2.61c-.87-3.29-87.14-329.67-100-370.49-4.38-13.93-9.19-25-14.3-32.88l-3.5-5.41h21.89a27.81 27.81 0 0 1 26.83 20.61zm-29.18-7h20.07l-101.95-382a20.8 20.8 0 0 0 -20.07-15.42h-9.31a164 164 0 0 1 11.9 29.19c12.26 39.05 91.12 337.06 99.36 368.23z"/><path d="m2601.93 1538.18c-10.59 0-21-4.28-29.87-12.39-10.29-9.41-17.29-22.93-19.7-38s0-30.15 6.87-42.29c7.06-12.52 17.92-20.52 30.59-22.55s25.48 2.21 36.08 11.9c10.29 9.41 17.29 22.93 19.7 38s0 30.15-6.87 42.29c-7.06 12.52-17.92 20.52-30.59 22.55a39.38 39.38 0 0 1 -6.21.49zm-5.93-105.93a28.57 28.57 0 0 0 -4.61.37c-9.65 1.54-18 7.81-23.57 17.66-5.76 10.22-7.79 23-5.73 35.91s8 24.42 16.63 32.34c8.34 7.63 18.24 11 27.89 9.44s18-7.81 23.57-17.66c5.76-10.22 7.79-23 5.73-35.91s-8-24.42-16.63-32.34c-7.04-6.42-15.16-9.81-23.28-9.81z" fill="#c57f29"/><path d="m3157.24 1678.79h-728.63a39.78 39.78 0 0 1 -39.12-32.54l-70.25-379.37a26.46 26.46 0 0 1 25.86-31.58h452.29a27.81 27.81 0 0 1 26.83 20.61l102.48 383.94c22.3 1.33 184.73 11 204.7 12 19.19.9 27.52 15.24 29.25 22.69a3.52 3.52 0 0 1 -.67 3 3.47 3.47 0 0 1 -2.74 1.25zm-812.13-436.49a19.47 19.47 0 0 0 -19 23.26l70.26 379.44a32.79 32.79 0 0 0 32.24 26.81h723.53c-2.53-4.93-8.43-12.39-21.07-13-21.38-1-205.46-12-207.31-12.12a3.48 3.48 0 0 1 -3.17-2.59l-103.13-386.37a20.8 20.8 0 0 0 -20.07-15.42z"/><path d="m984.31 2186.85h-272.17a36.06 36.06 0 0 0 -35.95 36v126.34a36.06 36.06 0 0 0 35.95 36h240l61.26 61.24a3.9 3.9 0 0 0 4.37.88 4 4 0 0 0 2.47-3.71v-220.8a36.05 36.05 0 0 0 -35.93-35.95z" fill="#61b0e3" fill-rule="evenodd"/><path d="m1016.2 2451a7.36 7.36 0 0 1 -5.27-2.24l-60.23-60.21h-238.56a39.49 39.49 0 0 1 -39.45-39.45v-126.3a39.49 39.49 0 0 1 39.45-39.45h272.17a39.49 39.49 0 0 1 39.44 39.45v220.7a7.43 7.43 0 0 1 -4.61 6.94 7.69 7.69 0 0 1 -2.94.56zm-304.06-260.65a32.48 32.48 0 0 0 -32.45 32.45v126.34a32.48 32.48 0 0 0 32.45 32.45h241.46l62.28 62.27a.5.5 0 0 0 .87-.36v-220.7a32.48 32.48 0 0 0 -32.44-32.45z"/><g fill-rule="evenodd"><path d="m762.17 2277.8h-27.96v-27.7h-14.96v70.62h14.96v-30.46h27.96v30.46h14.92v-70.62h-14.92z" fill="#fff"/><path d="m788.02 2262.56h19.18v58.16h14.96v-58.16h19.18v-12.46h-53.32z" fill="#fff"/><path d="m889.61 2304.1h-.29l-16.7-54h-20.4v70.62h13.39v-32.85q0-5.64-.93-22.56h.44l17 55.41h13.71l18.22-55.31h.43q-.56 13.32-.64 16.42c-.06 2.07-.08 3.89-.08 5.46v33.43h14v-70.62h-20.41z" fill="#fff"/><path d="m960.45 2250.1h-14.96v70.62h43.61v-12.36h-28.65z" fill="#fff"/><path d="m3948.94 1246.73h-133.69a25.13 25.13 0 0 0 -25.08 25v133.7a25.13 25.13 0 0 0 25.08 25.07h133.69a25.13 25.13 0 0 0 25.07-25.07v-133.7a25.12 25.12 0 0 0 -25.07-25zm0 231.53h-133.69a25.16 25.16 0 0 0 -25.08 25.1v133.69a25.13 25.13 0 0 0 25.08 25.06h133.69a25.13 25.13 0 0 0 25.07-25.06v-133.69a25.16 25.16 0 0 0 -25.07-25.1zm0 231.57h-133.69a25.14 25.14 0 0 0 -25.08 25.06v133.7a25.14 25.14 0 0 0 25.08 25.06h133.69a25.13 25.13 0 0 0 25.07-25.06v-133.7a25.13 25.13 0 0 0 -25.07-25.06z" fill="#9ccee0"/><path d="m3928.17 1229.05h-133.69a25.12 25.12 0 0 0 -25.07 25v133.69a25.13 25.13 0 0 0 25.07 25.06h133.69a25.13 25.13 0 0 0 25.07-25.06v-133.64a25.13 25.13 0 0 0 -25.07-25.05z" fill="#fff"/></g><path d="m3928.17 1416.35h-133.69a28.59 28.59 0 0 1 -28.57-28.56v-133.69a28.58 28.58 0 0 1 28.57-28.55h133.69a28.59 28.59 0 0 1 28.57 28.55v133.69a28.6 28.6 0 0 1 -28.57 28.56zm-133.69-183.8a21.58 21.58 0 0 0 -21.57 21.55v133.69a21.58 21.58 0 0 0 21.57 21.56h133.69a21.59 21.59 0 0 0 21.57-21.56v-133.69a21.58 21.58 0 0 0 -21.57-21.55z"/><path d="m3928.17 1460.57h-133.69a25.15 25.15 0 0 0 -25.07 25.09v133.7a25.12 25.12 0 0 0 25.07 25.05h133.69a25.13 25.13 0 0 0 25.07-25.05v-133.7a25.16 25.16 0 0 0 -25.07-25.09z" fill="#fff" fill-rule="evenodd"/><path d="m3928.17 1647.91h-133.69a28.58 28.58 0 0 1 -28.57-28.55v-133.7a28.61 28.61 0 0 1 28.57-28.59h133.69a28.62 28.62 0 0 1 28.57 28.59v133.7a28.59 28.59 0 0 1 -28.57 28.55zm-133.69-183.84a21.6 21.6 0 0 0 -21.57 21.59v133.7a21.58 21.58 0 0 0 21.57 21.55h133.69a21.58 21.58 0 0 0 21.57-21.55v-133.7a21.61 21.61 0 0 0 -21.57-21.59z"/><path d="m3928.17 1692.14h-133.69a25.13 25.13 0 0 0 -25.07 25.06v133.69a25.13 25.13 0 0 0 25.07 25.07h133.69a25.14 25.14 0 0 0 25.07-25.07v-133.69a25.13 25.13 0 0 0 -25.07-25.06z" fill="#fff" fill-rule="evenodd"/><path d="m3928.17 1879.46h-133.69a28.6 28.6 0 0 1 -28.57-28.57v-133.69a28.59 28.59 0 0 1 28.57-28.56h133.69a28.6 28.6 0 0 1 28.57 28.56v133.69a28.61 28.61 0 0 1 -28.57 28.57zm-133.69-183.82a21.58 21.58 0 0 0 -21.57 21.56v133.69a21.59 21.59 0 0 0 21.57 21.57h133.69a21.6 21.6 0 0 0 21.57-21.57v-133.69a21.59 21.59 0 0 0 -21.57-21.56z"/><path d="m3911.7 1269a11 11 0 0 0 -15.23 2.78l-51.65 75-19.77-20.56a10.94 10.94 0 1 0 -15.76 15.19l29.05 30.23a10.94 10.94 0 0 0 15.47.3 12.41 12.41 0 0 0 1.65-2l59-85.66a11 11 0 0 0 -2.76-15.28z" fill="#78bfd9" fill-rule="evenodd"/><path d="m3902.07 1504.21a11 11 0 0 0 -15.45 1.31l-25.29 30-25.31-30a10.95 10.95 0 1 0 -16.73 14.13l27.7 32.85-27.69 32.83a11 11 0 1 0 16.72 14.15l25.31-30 25.29 30a11 11 0 1 0 16.73-14.15l-27.68-32.83 27.68-32.85a11 11 0 0 0 -1.28-15.44z" fill="#d89b4f" fill-rule="evenodd"/><path d="m3911.7 1732.05a10.93 10.93 0 0 0 -15.23 2.78l-51.65 75-19.77-20.56a10.94 10.94 0 0 0 -15.76 15.18l29.05 30.2a10.93 10.93 0 0 0 15.47.33 12 12 0 0 0 1.65-2l59-85.68a10.93 10.93 0 0 0 -2.76-15.25z" fill="#78bfd9" fill-rule="evenodd"/><path d="m1188.78 2361.03 1.31 4.96 35.68 134.4 1.51 5.66 10.4 39.15 1.77 6.7 11.69 44.03 1.61 6.11 16.56 62.33h205.84l15.94-60.01 3.4-12.84 73.64-277.31 2.56-9.62 2.39-9.01h-401.68z" fill="#99682b"/><path d="m1477.84 2667.87h-211.22l-99.77-375.79h410.78l-6.11 23-73.65 277.31zm-205.84-7h200.46l96.07-361.79h-392.53l17.52 66 35.68 134.4 13.68 51.5z"/><ellipse cx="1372.23" cy="2295.59" fill="#090d10" rx="200.85" ry="12.76"/><path d="m1409.91 1740.79 32.74-76.3c-33.7-77.57-79.11-136.36-79.11-136.36s-76.58 101-103.12 210.33c19.93 26 44.86 60.53 45.47 61.39l-51.69-29.27a253.7 253.7 0 0 0 -2.51 46.7c4.62 106 120.78 166.81 120.78 166.81 127.64-67.92 118.9-190.07 81.74-290.84z" fill="#61b0e3"/><path d="m1372.5 1988-1.64-.86c-1.2-.63-29.82-15.77-59.46-44.24-27.48-26.41-60.76-69.62-63.2-125.52a259.22 259.22 0 0 1 2.54-47.35l.73-5.08 42.12 23.85c-9.22-12.62-23.59-32.15-35.93-48.27l-1-1.32.39-1.63c26.41-108.82 103-210.6 103.73-211.61l2.77-3.64 2.79 3.61c.46.6 46.07 60 79.55 137.1l.4.93-.22 1.44-.18.42-24.82 57.83 34.49-37 2 5.33c22.12 60 29.21 113.64 21.1 159.56-10.36 58.58-45.51 104.2-104.47 135.58zm-115.5-211.83a247.52 247.52 0 0 0 -1.79 40.94c2.33 53.52 34.41 95.15 60.91 120.65a293.31 293.31 0 0 0 56.39 42.34c56-30.29 89.34-73.92 99.2-129.73 7.66-43.31 1.33-93.94-18.82-150.55l-54.11 58.06 40.07-93.39c-28.29-64.67-65-116.48-75.26-130.49-13.84 19.17-75.83 108.59-99.35 203.65 19.84 26 44.29 59.84 44.52 60.15l9.25 12.91z"/><path d="m1369.66 1684.42c-.14-3.43-5.49-3.45-5.35 0 6.72 161.41 5.48 323.23 5.1 484.74q-.15 63.16-.39 126.32c0 3.44 5.34 3.45 5.35 0 .52-163.17 1.47-326.38-1.37-489.53-.7-40.52-1.65-81.04-3.34-121.53z" fill="#090d10"/><path d="m1308.77 1718.88c-2.33-2.55-6.1 1.25-3.78 3.78l62.9 68.64c2.33 2.55 6.1-1.24 3.78-3.78zm131.37 52.12-70.72 60.56c-2.62 2.24 1.18 6 3.79 3.78l70.71-60.55c2.62-2.3-1.18-6.07-3.78-3.79zm-137.21 73.36c-2.61-2.21-6.42 1.56-3.78 3.78l71.19 60c2.62 2.21 6.42-1.56 3.78-3.78z" fill="#090d10"/><path d="m1535.08 1862.16-9.32 77-13.5-59.18c-77.26 64-141.58 158.55-70.33 273.25 0 0 122.36 5.31 175.77-78.12a237.59 237.59 0 0 0 19.87-38.9l-55.48-.59c.9-.4 37.22-16.61 65.51-28.28 29.84-100.79 15.31-218.24 15.31-218.24s-64.24 26.2-127.83 73.06z" fill="#9de3fd"/><path d="m1446.61 2156.81c-2.86 0-4.55-.07-4.83-.08l-1.84-.08-1-1.57c-33-53.06-40-106.45-20.85-158.7 15-40.93 45.91-81 91.91-119.1l4.38-3.62 10.3 45.12 7-57.44.51-1.36.85-.63c63.2-46.59 127.93-73.22 128.57-73.49l4.24-1.72.56 4.53c.15 1.19 14.28 119.34-15.42 219.67l-.48 1.6-1.54.64c-17.3 7.13-37.38 15.86-50.68 21.71l44.48.47-1.92 4.76a241.18 241.18 0 0 1 -20.17 39.47c-22.33 34.89-60.38 59.74-110 71.87a280.22 280.22 0 0 1 -64.07 7.95zm-2.69-7a273.26 273.26 0 0 0 65.22-7.77c33.32-8.16 78.69-26.72 105.62-68.79a231.36 231.36 0 0 0 17.59-33.57l-66.19-.7 14.49-6.52c.33-.15 35.52-15.87 64.07-27.68 25.39-87.34 17.45-188 15.21-210.57-15.27 6.67-68.79 31.25-121.56 69.91l-11.55 95.45-16.7-73.2c-42.63 36.18-71.36 74-85.43 112.45-18.16 49.57-11.69 100.36 19.23 150.96z"/><path d="m1584.55 1912.4c-57.35 89.87-116.21 178.86-169 271.55q-23.62 41.51-45.65 83.89c-1.59 3 3 5.76 4.62 2.7 49.23-94.69 105.42-185.23 163-275q25.82-40.23 51.6-80.46c1.88-2.89-2.72-5.58-4.57-2.68z" fill="#090d10"/><path d="m1617.66 1968.71-85 26.6c-3.28 1-1.88 6.19 1.42 5.16l85-26.6c3.28-1.03 1.92-6.19-1.42-5.16zm-130.3-19.43c-1.13-3.23-6.3-1.84-5.16 1.43q14.08 40.18 28.15 80.39c1.13 3.23 6.3 1.84 5.16-1.42q-14.07-40.2-28.15-80.4zm76.19 123.53-87.41 15.4c-3.38.6-2 5.76 1.42 5.16l87.44-15.37c3.36-.63 1.92-5.79-1.45-5.19z" fill="#090d10"/><path d="m1178.84 1940 1.33 60.69-27.81-72.39c-73.1-29.94-141.79-39.67-141.79-39.67s14.55 117.44 68.07 207.91c30.29 4.42 69.46 11.27 70.43 11.45l-53.66 14.1a237.85 237.85 0 0 0 28.75 32.88c72.15 67.89 189.52 32.89 189.52 32.89 41.13-128.63-44.31-204.66-134.84-247.86z" fill="#9de3fd"/><path d="m1244.23 2200.36c-50.33 0-92.65-14.8-122.47-42.86a242.07 242.07 0 0 1 -29.18-33.37l-3-4.14 43-11.31c-14.34-2.43-36-6-54.44-8.7l-1.65-.24-.85-1.44c-53.27-90.05-68.38-208.08-68.53-209.26l-.56-4.54 4.52.64c.7.1 70 10.14 142.62 39.91l1 .41.79 1.23.14.35 20.6 53.62-1-46.27 5.13 2.45c53.91 25.72 93.67 57 118.19 93.08 31.29 46 37.51 99.5 18.48 159l-.56 1.76-1.77.53c-1.22.36-30.26 8.89-68.68 9.15zm-142.92-76.23a230.88 230.88 0 0 0 25.25 28.27c36.38 34.23 84.92 41.16 119.2 41a273.54 273.54 0 0 0 65.15-8.38c17.64-56.61 11.53-107.45-18.17-151.12-23-33.86-60.12-63.52-110.28-88.22l1.66 75.06-34.49-89.74c-60.6-24.62-118.49-35.41-134.93-38.15 3.34 22.46 20.17 122 66.11 200.5 30.47 4.49 68.51 11.16 68.87 11.22l15.67 2.79z"/><path d="m1180.76 2050.8q-31.71-31.26-64.15-61.75c-2.5-2.37-6.29 1.41-3.78 3.78q101.93 96.27 195.64 200.26 29.76 33.12 59.23 66.52c2.29 2.58 6.06-1.22 3.78-3.79-61.94-69.89-124.19-139.42-190.72-205.02z" fill="#090d10"/><path d="m1185 2056.69-86.81-4.94c-3.44-.19-3.43 5.16 0 5.35l86.81 4.9c3.45.24 3.44-5.12 0-5.31zm34.88-55.49q-3.93 43.29-7.85 86.59c-.31 3.43 5 3.41 5.35 0q3.93-43.29 7.85-86.59c.31-3.43-5.04-3.41-5.35 0zm40.27 132.06c-28 2-56.06 4.22-84.09 6.25-3.41.25-3.44 5.6 0 5.35 28-2 56.06-4.22 84.09-6.25 3.41-.24 3.44-5.61 0-5.35z" fill="#090d10"/><path d="m2302.17 1978.94h-410.51a20.11 20.11 0 0 0 -20.06 20v235.36a20.12 20.12 0 0 0 20.06 20.06h410.51a20.12 20.12 0 0 0 20.06-20.06v-235.3a20.11 20.11 0 0 0 -20.06-20.06z" fill="#61b0e3" fill-rule="evenodd"/><path d="m2302.17 2257.91h-410.51a23.59 23.59 0 0 1 -23.56-23.56v-235.35a23.59 23.59 0 0 1 23.56-23.55h410.51a23.59 23.59 0 0 1 23.56 23.55v235.36a23.59 23.59 0 0 1 -23.56 23.55zm-410.51-275.47a16.57 16.57 0 0 0 -16.56 16.56v235.36a16.57 16.57 0 0 0 16.56 16.56h410.51a16.58 16.58 0 0 0 16.56-16.56v-235.36a16.58 16.58 0 0 0 -16.56-16.55z"/><path d="m1871.9 2237.82a20.16 20.16 0 0 0 19.76 16.59h410.53a20.13 20.13 0 0 0 19.74-16.59l-225-156.07z" fill="#9de3fd" fill-rule="evenodd"/><path d="m2302.19 2257.91h-410.53a23.56 23.56 0 0 1 -23.21-19.48l-.39-2.21 228.86-158.73 228.85 158.73-.39 2.2a23.54 23.54 0 0 1 -23.19 19.49zm-426.33-18.59a16.57 16.57 0 0 0 15.8 11.59h410.53a16.54 16.54 0 0 0 15.78-11.59l-221-153.31z"/><path d="m2302.19 1978.94h-410.53a20.05 20.05 0 0 0 -14.78 6.51l220 152.62 220-152.62a20 20 0 0 0 -14.69-6.51z" fill="#9de3fd" fill-rule="evenodd"/><path d="m2096.92 2142.33-225.33-156.33 2.72-3a23.61 23.61 0 0 1 17.35-7.65h410.53a23.6 23.6 0 0 1 17.33 7.65l2.72 3zm-214.32-157.17 214.32 148.65 214.31-148.65a16.46 16.46 0 0 0 -9-2.72h-410.57a16.47 16.47 0 0 0 -9.06 2.72z"/><path d="m1264.25 1193.54 40.27-26.64a240.91 240.91 0 0 0 -21.23-51.32l-47.32 9.5-31-36.36 16.83-45.19a243.11 243.11 0 0 0 -47.44-29.09l-32.66 35.5-46.43-11.13-13-46.42a256.78 256.78 0 0 0 -26.56.44 240.83 240.83 0 0 0 -28.73 3.95l-5.59 47.87-44.03 18.35-37.77-29.85a238.11 238.11 0 0 0 -42.16 36.07l23.64 42-24.88 40.78-48.19-2a239 239 0 0 0 -12.89 54l43.89 20 3.91 47.62-40.15 26.76a237.45 237.45 0 0 0 20.57 49.79l47.33-9.3 30.86 36.45-17 45.12a240.25 240.25 0 0 0 47.24 29.13l32.76-35.31 46.4 11.29 12.83 46.42a225.93 225.93 0 0 0 27.38-.4 243.65 243.65 0 0 0 28-3.71l5.66-47.91 44.24-18.15 37.66 30.06a239 239 0 0 0 42.28-36l-23.53-42 25.06-40.7 48.17 2.12a241.1 241.1 0 0 0 13.11-54l-43.87-20.1zm-102.93 100.77a107.53 107.53 0 1 1 -175.62-124.14c34.19-48.58 101.25-60 149.87-25.86a107.57 107.57 0 0 1 25.75 150z" fill="#f99e2e"/><path d="m1164.41 1103.68a157.49 157.49 0 0 0 -219.57 37.54c-50.17 71-33.21 169.4 37.78 219.58a157.45 157.45 0 0 0 181.79-257.12zm25.06 210.53a142.09 142.09 0 1 1 -34-197.93 142 142 0 0 1 34 197.93z" fill="#ffa12e"/><path d="m1214.74 1217.91a141.88 141.88 0 0 1 -58.58 129.81q-9.18 14.54-19.67 28.84a157.45 157.45 0 0 0 87.11-191.8q-3.86 16.34-8.86 33.15z" fill="#ffa12e"/><path d="m1273.11 1176.2 40.27-26.64a240.88 240.88 0 0 0 -21.22-51.32l-47.32 9.5-31-36.36 16.83-45.19a243.48 243.48 0 0 0 -47.45-29.09l-32.65 35.51-46.44-11.14-13-46.42a257 257 0 0 0 -26.57.44 240.83 240.83 0 0 0 -28.73 4l-5.58 47.87-44.09 18.3-37.77-29.85a238.18 238.18 0 0 0 -42.17 36.07l23.65 42-24.88 40.81-48.19-2a239 239 0 0 0 -12.9 54l43.93 20 3.91 47.62-40.16 26.76a237.48 237.48 0 0 0 20.58 49.79l47.32-9.3 30.94 36.44-17 45.12a239.49 239.49 0 0 0 47.24 29.13l32.76-35.31 46.4 11.29 12.83 46.42a225.93 225.93 0 0 0 27.38-.4 244.24 244.24 0 0 0 28-3.71l5.65-47.91 44.32-18.13 37.66 30.06a239 239 0 0 0 42.27-36l-23.53-42 25.06-40.69 48.18 2.11a241.64 241.64 0 0 0 13.11-54l-43.87-20.1zm-102.92 100.8a107.54 107.54 0 1 1 -175.63-124.14c34.2-48.58 101.25-60 149.87-25.86a107.57 107.57 0 0 1 25.76 150z" fill="#ff8d00"/><path d="m1173.27 1086.34a157.5 157.5 0 0 0 -219.57 37.54c-50.17 71-33.21 169.4 37.79 219.58a157.44 157.44 0 1 0 181.78-257.12zm25.07 210.53a142.09 142.09 0 1 1 -34-197.93 142 142 0 0 1 34 197.93z" fill="#f99e2e"/><path d="m1083.25 1458.4c-3.54 0-7.12-.07-10.73-.23l-2.54-.11-13-46.9-42.4-10.31-33.1 35.67-2.31-1.08a243.06 243.06 0 0 1 -47.93-29.56l-2-1.58 17.15-45.59-28.21-33.31-47.81 9.4-1.24-2.23a241.09 241.09 0 0 1 -20.84-50.57l-.7-2.45 40.56-27-3.57-43.55-44.38-20.2.3-2.54a242.8 242.8 0 0 1 13.08-54.82l.88-2.4 48.68 2 22.74-37.3-23.88-42.42 1.73-1.87a242.52 242.52 0 0 1 42.79-36.6l2.12-1.42 38.15 30.16 40.3-16.73 5.64-48.36 2.51-.5a246.26 246.26 0 0 1 29.14-4 262.38 262.38 0 0 1 26.94-.45l2.57.09 13.1 46.91 42.43 10.17 33-35.88 2.32 1.09a246.42 246.42 0 0 1 48.13 29.51l2 1.58-17 45.66 28.3 33.22 47.81-9.6 1.24 2.24a244.84 244.84 0 0 1 21.53 52.07l.69 2.46-40.68 26.93 3.4 43.53 44.32 20.32-.31 2.54a245.31 245.31 0 0 1 -13.3 54.79l-.88 2.4-48.68-2.14-22.9 37.2 23.78 42.47-1.75 1.87a242.48 242.48 0 0 1 -42.89 36.51l-2.13 1.42-38.05-30.37-40.43 16.58-5.72 48.42-2.52.48a245.49 245.49 0 0 1 -28.39 3.76c-5.52.41-11.24.62-17.06.62zm-7.88-7.13a220.8 220.8 0 0 0 24.42-.49 232.88 232.88 0 0 0 25.09-3.2l5.59-47.39 48.06-19.71 37.25 29.74a236 236 0 0 0 37.8-32.18l-23.29-41.59 27.22-44.2 47.67 2.09a239.48 239.48 0 0 0 11.72-48.29l-43.4-19.89-4-51.74 39.85-26.36a237.72 237.72 0 0 0 -19-45.88l-46.81 9.4-33.64-39.49 16.65-44.71a240.32 240.32 0 0 0 -42.44-26l-32.3 35.13-50.43-12.09-12.83-45.93c-8-.19-15.89 0-23.65.51a237.34 237.34 0 0 0 -25.79 3.41l-5.52 47.36-47.89 19.88-37.37-29.54a235.84 235.84 0 0 0 -37.7 32.26l23.4 41.53-27 44.32-47.68-2a235.88 235.88 0 0 0 -11.52 48.31l43.45 19.81 4.25 51.72-39.74 26.48a233.78 233.78 0 0 0 18.34 44.37l46.83-9.2 33.52 39.59-16.85 44.7a236.31 236.31 0 0 0 42.23 26l32.42-34.93 50.39 12.25zm6.73-125.27a111 111 0 0 1 -90.39-175.24c35.18-50 104.59-62 154.74-26.69a111.17 111.17 0 0 1 -45.37 200.31 111.92 111.92 0 0 1 -18.98 1.62zm.41-215.18a104.08 104.08 0 1 0 84.82 164.18 103.95 103.95 0 0 0 -84.82-164.09z"/><path d="m1082 1375.93a159.57 159.57 0 0 1 -92.56-29.56c-72.53-51.25-89.85-151.94-38.63-224.45a161 161 0 1 1 158.76 251.65 162.86 162.86 0 0 1 -27.57 2.36zm.44-314.92a153.92 153.92 0 0 0 -125.91 65c-49 69.36-32.42 165.67 37 214.69a153.94 153.94 0 0 0 177.74-251.4 153.24 153.24 0 0 0 -88.81-28.3z"/><rect fill="#fff" height="236.75" rx="26.43" width="236.75" x="2091.12" y="510.88"/><path d="m2301.44 751.13h-183.9a30 30 0 0 1 -29.92-29.92v-183.9a30 30 0 0 1 29.93-29.93h183.89a30 30 0 0 1 29.93 29.93v183.9a30 30 0 0 1 -29.93 29.92zm-183.89-236.75a23 23 0 0 0 -22.93 22.93v183.9a22.94 22.94 0 0 0 22.92 22.92h183.9a23 23 0 0 0 22.93-22.92v-183.9a23 23 0 0 0 -22.93-22.93z"/><path d="m2124.13 641.22 55.46 20.12v-18.49l-32.95-11.31 32.95-11.31v-18.48l-55.46 20.11z"/><path d="m2181.22 680.47h21.75l35.89-102.43h-21.75z"/><path d="m2239.4 620.23 32.95 11.31-32.95 11.31v18.49l55.46-20.12v-19.36l-55.46-20.11z"/><path d="m1622.45 447.32a45 45 0 0 1 22.36-5.5q21.36 0 36.34 18.06l27.76-25.11a73.38 73.38 0 0 0 -28.2-21.59q-17-7.49-38.1-7.48-24.24 0-43.5 10.24a76.57 76.57 0 0 0 -30.29 28.52q-11 18.29-11 41.41t11 41.41a76.57 76.57 0 0 0 30.29 28.52q19.26 10.25 43.5 10.25 21.14 0 38.1-7.49a73.28 73.28 0 0 0 28.2-21.59l-27.76-25.11q-15 18.06-36.34 18.06a44.89 44.89 0 0 1 -22.36-5.5 38.18 38.18 0 0 1 -15.19-15.53 51.77 51.77 0 0 1 0-46 38.25 38.25 0 0 1 15.19-15.57z" fill="#8cd8f4"/><path d="m1795.25 433.45h-33.92v36.34h-37.45v32.16h37.45v36.34h33.92v-36.34h37.22v-32.16h-37.22z" fill="#8cd8f4"/><path d="m1931.14 433.45h-33.92v36.34h-37.44v32.16h37.44v36.34h33.92v-36.34h37.23v-32.16h-37.23z" fill="#8cd8f4"/><path d="m3231.45 892.17h-435a45.88 45.88 0 0 0 -45.88 45.88v99.61.37 119.69l56.21-74.17h424.7a45.88 45.88 0 0 0 45.87-45.88v-99.62a45.88 45.88 0 0 0 -45.9-45.88z" fill="#87ddfd"/><path d="m2738.92 1161.21a3.59 3.59 0 0 1 -1.12-.18 3.5 3.5 0 0 1 -2.38-3.32v-219.66a49.43 49.43 0 0 1 49.37-49.38h435a49.43 49.43 0 0 1 49.38 49.38v99.61a49.43 49.43 0 0 1 -49.38 49.38h-423l-55.16 72.79a3.51 3.51 0 0 1 -2.71 1.38zm3.5-122.93v109l49.92-65.88a3.5 3.5 0 0 1 2.79-1.38h424.69a42.43 42.43 0 0 0 42.38-42.38v-99.59a42.43 42.43 0 0 0 -42.38-42.38h-435a42.42 42.42 0 0 0 -42.37 42.38v100c-.02.04-.03.13-.03.23z"/><path d="m2808 988.89 53.6 19.79v-15.88l-34.68-12.29 34.68-12.28v-15.88l-53.6 19.79z" fill="#fff"/><path d="m2904.55 975.08q7.72 0 11.75 7.94l16-8.16a23.82 23.82 0 0 0 -10.3-11.86 33.47 33.47 0 0 0 -17.29-4.29 38.62 38.62 0 0 0 -17.5 3.86 28.63 28.63 0 0 0 -16.36 26.43 29 29 0 0 0 16.31 26.64 38.13 38.13 0 0 0 17.5 3.91 33.47 33.47 0 0 0 17.29-4.29 23.82 23.82 0 0 0 10.33-11.91l-16-8.16q-4 7.95-11.75 7.94a12.25 12.25 0 0 1 -9.18-3.75q-3.64-3.75-3.65-10.38t3.65-10.23a12.35 12.35 0 0 1 9.2-3.69zm81.66-12.56a40 40 0 0 0 -34.3 0 30.17 30.17 0 0 0 -11.85 42.24 29.55 29.55 0 0 0 11.9 10.88 39.46 39.46 0 0 0 34.25 0 29.18 29.18 0 0 0 11.86-10.88 31.34 31.34 0 0 0 0-31.48 28.91 28.91 0 0 0 -11.86-10.76zm-8.21 36.86a12.47 12.47 0 0 1 -17.83 0q-3.48-3.75-3.48-10.38t3.48-10.23a12.61 12.61 0 0 1 17.83 0q3.48 3.71 3.48 10.23t-3.48 10.38zm75.84-34.63q-5.76-6.09-16.31-6.09a29.55 29.55 0 0 0 -14.67 3.7 26.77 26.77 0 0 0 -10.5 10.6 32.35 32.35 0 0 0 -3.86 16 32.68 32.68 0 0 0 3.86 16.09 27.06 27.06 0 0 0 10.5 10.71 29.28 29.28 0 0 0 14.67 3.75q11.53 0 17.29-6.85v5.87h19.68v-80.64h-20.66zm-3.15 34.63a12.34 12.34 0 0 1 -17.72 0q-3.48-3.75-3.48-10.38t3.48-10.23a11.71 11.71 0 0 1 8.91-3.69 11.56 11.56 0 0 1 8.87 3.69q3.42 3.71 3.42 10.23t-3.48 10.38zm81.77-37.08a37.13 37.13 0 0 0 -32.62.27 29.71 29.71 0 0 0 .65 53.07 40.09 40.09 0 0 0 18.16 3.91q16.53 0 25.12-9.57l-10.87-11.31a21.65 21.65 0 0 1 -6.26 3.92 20.28 20.28 0 0 1 -7.34 1.19 16.87 16.87 0 0 1 -9.4-2.44 12 12 0 0 1 -5.06-7h42.84c.22-3.26.33-5 .33-5.11a31 31 0 0 0 -4.19-16.36 27.76 27.76 0 0 0 -11.36-10.57zm-27.94 21.15a12.18 12.18 0 0 1 4.07-7.39 13.11 13.11 0 0 1 16 0 12.28 12.28 0 0 1 4.07 7.39z" fill="#fff"/><path d="m3157.25 968.23 34.69 12.28-34.69 12.29v15.88l53.61-19.79v-16.75l-53.61-19.79z" fill="#fff"/></g></svg>